<svg width="601" height="600" viewBox="0 0 601 600" fill="none" xmlns="http://www.w3.org/2000/svg">
<path d="M339.222 448.722C345.167 448.778 349.889 444.111 349.889 438.167C349.889 432.278 345.167 427.556 339.222 427.556C333.333 427.611 328.667 432.333 328.722 438.278C328.778 444.111 333.389 448.667 339.222 448.722Z" fill="#F2F2F2"/>
<path d="M319.5 468.778C325.389 468.778 330.167 464.111 330.278 458.167C330.389 452.056 325.611 447.222 319.556 447.222C313.5 447.222 308.722 452 308.778 458.111C308.833 464.056 313.556 468.722 319.5 468.778Z" fill="#F2F2F2"/>
<path d="M299.278 487.667C304.833 488.056 310 483.278 310.222 477.611C310.444 471.833 306 467 300.167 466.667C294.5 466.333 289.5 471 289.278 476.722C289 481.444 292.389 487.167 299.278 487.667Z" fill="#F2F2F2"/>
<path d="M378.722 448.944C384.778 449.056 389.611 444.333 389.778 438.333C389.889 432.722 385.333 427.444 379.055 427.389C373 427.333 368.167 432.167 368.167 438.167C368.111 444.111 372.778 448.833 378.722 448.944Z" fill="#F2F2F2"/>
<path d="M398.555 429.111C404.666 429.222 409.444 424.556 409.555 418.444C409.611 412.222 404.778 407.611 398.778 407.5C392.889 407.444 388.111 412.167 387.944 418.056C387.778 424.167 392.5 429.056 398.555 429.111Z" fill="#F2F2F2"/>
<path d="M359.111 468.667C365.055 468.667 369.944 463.722 369.833 457.778C369.722 452.389 365.111 447.167 359 447.278C353.111 447.333 348.444 452.111 348.444 458C348.444 463.889 353.222 468.667 359.111 468.667Z" fill="#F2F2F2"/>
<path d="M220.389 448.333C226.278 448.333 231.056 443.667 231.278 437.833C231.5 432.111 226.889 426.833 220.667 426.722C214.611 426.611 209.722 431.278 209.611 437.333C209.611 443.389 214.389 448.278 220.389 448.333Z" fill="#F2F2F2"/>
<path d="M200.444 428.5C206.5 428.611 211.389 423.833 211.444 417.833C211.5 411.833 206.667 406.944 200.667 406.889C194.722 406.889 189.944 411.5 189.833 417.444C189.722 423.556 194.389 428.389 200.444 428.5Z" fill="#F2F2F2"/>
<path d="M260.111 448.056C266 448.056 270.722 443.278 270.667 437.389C270.611 431.5 265.833 426.833 259.889 426.944C254 427 249.389 431.833 249.5 437.778C249.611 443.556 254.278 448.056 260.111 448.056Z" fill="#F2F2F2"/>
<path d="M458.945 229.611C453.222 229.444 448.445 233.833 448.334 239.944C448.222 245.722 452.667 250.389 458.611 250.611C464.278 250.667 469.167 245.944 469.222 240.222C469.334 235 465.5 229.778 458.945 229.611Z" fill="#F2F2F2"/>
<path d="M181 408.722C186.389 408.833 191.722 404.222 191.667 397.667C191.556 391.778 186.722 387.167 180.833 387.056C175.389 387 170 391.611 170.056 398C170.111 404.278 175.5 408.944 181 408.722Z" fill="#F2F2F2"/>
<path d="M279.944 468.111C285.778 468.056 290.611 463.222 290.667 457.389C290.722 451.5 286 446.722 280.111 446.556C273.833 446.333 269.056 451.667 269.111 457.222C269.167 463.278 273.944 468.167 279.944 468.111Z" fill="#F2F2F2"/>
<path d="M478.722 148.111C482.722 148.056 485.944 144.722 485.778 140.778C485.666 136.944 482.444 133.778 478.611 133.778C474.722 133.778 471.389 137.111 471.389 141.056C471.444 145 474.722 148.167 478.722 148.111Z" fill="#F2F2F2"/>
<path d="M478.389 106.667C481.389 106.778 483.889 104.444 483.889 101.444C483.944 98.5556 481.667 96.2222 478.778 96.1111C475.778 96 473.278 98.3333 473.278 101.333C473.278 104.167 475.5 106.556 478.389 106.667Z" fill="#F2F2F2"/>
<path d="M478.556 64.1111C479.833 64.1111 480.945 63.0556 480.945 61.7222C480.945 60.4444 479.778 59.3889 478.5 59.4444C477.333 59.5 476.333 60.5556 476.278 61.6667C476.222 62.8889 477.333 64.1111 478.556 64.1111Z" fill="#F2F2F2"/>
<path d="M478.611 229.556C483.833 229.556 487.833 225.556 487.889 220.389C487.945 215.056 483.833 210.889 478.556 210.889C473.389 210.889 469.333 214.944 469.278 220.111C469.222 225.444 473.278 229.556 478.611 229.556Z" fill="#F2F2F2"/>
<path d="M478.611 189.167C483.222 189.167 487.055 185.333 487.111 180.722C487.167 176.111 483.389 172.222 478.778 172.111C474.167 172 470.222 175.778 470.111 180.389C469.944 185.111 473.889 189.167 478.611 189.167Z" fill="#F2F2F2"/>
<path d="M478.389 269.833C484 269.944 488.5 265.556 488.556 259.944C488.611 254.389 484.389 250.056 478.889 249.944C473.111 249.833 468.778 254.056 468.722 259.722C468.722 265.333 472.889 269.722 478.389 269.833Z" fill="#F2F2F2"/>
<path d="M438.333 389.5C444.222 389.5 449.056 384.722 449.111 378.889C449.167 372.833 444.333 367.944 438.333 368C432.278 368 427.5 372.833 427.611 378.944C427.667 384.778 432.445 389.5 438.333 389.5Z" fill="#F2F2F2"/>
<path d="M457.889 369.5C463.722 369.667 468.667 364.889 468.778 359.111C468.834 353.222 464.111 348.389 458.278 348.389C452.389 348.333 447.611 353.056 447.611 358.944C447.556 364.722 452.111 369.278 457.889 369.5Z" fill="#F2F2F2"/>
<path d="M458.556 269C452.667 269.111 447.945 274 448.056 279.833C448.111 285.056 452.389 290.444 458.889 290.333C464.889 290.278 469.5 285.611 469.5 279.667C469.5 273.556 464.667 268.889 458.556 269Z" fill="#F2F2F2"/>
<path d="M458.222 308.5C452.333 308.5 447.555 313.222 447.389 319.111C447.222 325.111 452.333 330.111 458.111 330.111C464.167 330.111 468.889 324.944 468.944 319.5C469.055 313.167 463.611 308.445 458.222 308.5Z" fill="#F2F2F2"/>
<path d="M418.278 409.389C424.389 409.611 429.222 404.667 429.389 398.778C429.556 392.833 424.611 387.778 418.667 387.722C412.667 387.667 407.778 392.5 407.778 398.5C407.722 404.5 412.333 409.167 418.278 409.389Z" fill="#F2F2F2"/>
<path d="M240.333 468.056C246 468 251 463.333 250.889 457.278C250.778 451.333 246.111 446.667 240.167 446.667C234.222 446.667 229.611 451.389 229.611 457.389C229.667 463.333 234.444 468.111 240.333 468.056Z" fill="#F2F2F2"/>
<path d="M181.444 288.944C187 289 191.333 284.722 191.444 279.278C191.556 273.667 187.167 269.111 181.556 269.111C176.056 269.111 171.667 273.389 171.556 278.833C171.444 284.5 175.778 288.889 181.444 288.944Z" fill="#F2F2F2"/>
<path d="M180.833 308.667C175.444 308.722 171 313.056 170.944 318.556C170.889 324.111 175.5 328.611 181.055 328.556C186.555 328.444 190.778 324.056 190.722 318.5C190.778 312.889 186 308.611 180.833 308.667Z" fill="#F2F2F2"/>
<path d="M161.611 288.222C155.722 288.278 151.056 293.056 151.111 299C151.167 304.889 155.944 309.444 161.611 309.444C167.833 309.5 172.389 304.278 172.222 298.833C172.278 292.889 167.556 288.167 161.611 288.222Z" fill="#F2F2F2"/>
<path d="M181.5 228.833C175.833 228.833 170.944 233.667 171 239.333C171.056 245.5 175.889 250.056 181.667 249.944C188.444 249.778 192.167 244.111 192 239.333C191.944 233.556 187.167 228.833 181.5 228.833Z" fill="#F2F2F2"/>
<path d="M161.333 349.167C167.278 349.056 171.833 344.278 171.722 338.278C171.611 332.333 166.889 327.722 160.889 327.778C154.944 327.833 150.333 332.556 150.333 338.556C150.444 344.611 155.222 349.278 161.333 349.167Z" fill="#F2F2F2"/>
<path d="M201.333 249.833C196 249.833 191.833 253.889 191.833 259.222C191.833 264.556 195.944 268.667 201.222 268.667C206.5 268.667 210.667 264.556 210.722 259.278C210.778 253.944 206.667 249.833 201.333 249.833Z" fill="#F2F2F2"/>
<path d="M201.278 209.167C195.555 209.389 190.944 213.667 190.944 219.778C190.944 225.389 195.833 230 201.389 229.944C207 229.889 211.667 225.222 211.722 219.667C211.722 213.944 206.944 209.111 201.278 209.167Z" fill="#F2F2F2"/>
<path d="M221.056 230.222C216 230.222 212 234.222 211.944 239.222C211.889 244.333 216 248.611 221.056 248.611C226.111 248.667 230.333 244.444 230.389 239.389C230.389 234.333 226.222 230.222 221.056 230.222Z" fill="#F2F2F2"/>
<path d="M180.778 368.556C186.778 368.611 190.889 364.222 191.167 358.389C191 352.222 186.556 348.111 181.056 347.944C175.389 347.778 170.444 352.611 170.556 358.278C170.611 363.5 174.333 368.5 180.778 368.556Z" fill="#F2F2F2"/>
<path d="M200.722 329.278C195.556 329.278 191.444 333.278 191.389 338.444C191.389 343.556 195.5 347.722 200.611 347.722C205.722 347.722 209.889 343.611 209.944 338.5C209.944 333.389 205.889 329.278 200.722 329.278Z" fill="#F2F2F2"/>
<path d="M201.222 289.722C196.278 289.778 192.222 293.944 192.278 298.889C192.333 303.833 196.445 307.889 201.445 307.833C206.445 307.778 210.445 303.667 210.389 298.667C210.278 293.722 206.167 289.667 201.222 289.722Z" fill="#F2F2F2"/>
<path d="M181.389 189.111C175.389 189.167 170.778 193.833 170.778 199.778C170.778 205.833 175.611 210.556 181.722 210.444C187.667 210.333 192.278 205.5 192.167 199.556C192.111 193.611 187.389 189.056 181.389 189.111Z" fill="#F2F2F2"/>
<path d="M141.944 268.333C135.778 268.333 131.222 273.444 131.167 278.944C131.111 284.278 135.333 289.667 141.722 289.722C147.722 289.778 152.389 285.222 152.611 279.278C152.833 273.278 147.778 268.333 141.944 268.333Z" fill="#F2F2F2"/>
<path d="M161.833 269.944C167.889 269.889 172.556 265.056 172.444 258.944C172.333 253 167.556 248.389 161.611 248.444C155.722 248.5 151 253.222 151 259.167C150.944 265.222 155.778 270 161.833 269.944Z" fill="#F2F2F2"/>
<path d="M221.167 270.667C216.556 270.611 212.611 274.611 212.833 279.222C213.056 284 216.5 287.333 221.278 287.333C225.833 287.333 229.5 283.5 229.445 278.944C229.389 274.389 225.667 270.722 221.167 270.667Z" fill="#F2F2F2"/>
<path d="M161.778 208.889C155.833 208.833 151.111 213.5 151.056 219.5C151 225.389 155.778 230.278 161.611 230.278C167.278 230.333 172.389 225.611 172.333 219.611C172.278 213.667 167.722 208.944 161.778 208.889Z" fill="#F2F2F2"/>
<path d="M141.222 368.778C147.111 368.778 151.889 363.944 151.833 358.111C151.778 352.389 147.056 347.722 141.278 347.722C135.389 347.722 130.611 352.5 130.667 358.389C130.778 364.167 135.445 368.778 141.222 368.778Z" fill="#F2F2F2"/>
<path d="M201.444 169.278C195.5 169.222 190.667 173.889 190.556 179.778C190.444 185.833 195.278 190.722 201.333 190.667C207.278 190.667 212 185.944 212.056 180C212.056 174.111 207.389 169.333 201.444 169.278Z" fill="#F2F2F2"/>
<path d="M161.111 388.889C167 388.833 171.722 384.056 171.778 378.167C171.889 372.111 166.833 367.222 161 367.333C155.055 367.444 150.389 372 150.333 378C150.278 384 155.111 388.889 161.111 388.889Z" fill="#F2F2F2"/>
<path d="M240.278 427.889C246 427.889 250.5 423.333 250.5 417.611C250.444 411.944 245.778 407.389 240.167 407.444C234.667 407.556 230.167 412.111 230.111 417.611C230 423.278 234.556 427.889 240.278 427.889Z" fill="#F2F2F2"/>
<path d="M220.278 407.889C225.889 408 230.389 403.556 230.444 397.944C230.444 391.5 224.944 387.833 220.333 387.889C215 387.944 210.5 392.556 210.444 397.889C210.444 402.444 214 407.722 220.278 407.889Z" fill="#F2F2F2"/>
<path d="M221.055 149.5C215.222 149.556 210.389 154.444 210.5 160.278C210.667 166.778 216.111 170.944 221.278 170.833C227.111 170.722 231.833 165.944 231.778 160.056C231.722 154.167 226.889 149.444 221.055 149.5Z" fill="#F2F2F2"/>
<path d="M200.667 388.056C206.278 388.056 210.722 383.611 210.667 378C210.611 372.5 206.222 368.111 200.778 368.056C195.222 368 190.611 372.444 190.611 378C190.556 383.556 195.056 388.056 200.667 388.056Z" fill="#F2F2F2"/>
<path d="M141.222 329.444C146.833 329.444 152.167 324.556 152 318.556C151.945 312.667 147.167 307.944 141.333 307.944C135.333 307.944 130.5 312.833 130.556 318.778C130.556 324.889 135.889 329.389 141.222 329.444Z" fill="#F2F2F2"/>
<path d="M300.667 47.8333C303.722 47.6667 306.444 44.7778 306.333 41.7778C306.222 38.5556 303.278 35.8333 300.055 36C296.889 36.1667 294.389 38.8333 294.5 42.0556C294.555 45.3889 297.333 48.0556 300.667 47.8333Z" fill="#F2F2F2"/>
<path d="M300.222 4.66667C301.5 4.72222 302.667 3.66667 302.667 2.38889C302.722 1.11111 301.556 0 300.278 0C299.056 0 297.889 1.27778 297.945 2.44444C298.056 3.55556 299.111 4.61111 300.222 4.66667Z" fill="#F2F2F2"/>
<path d="M300.111 89.7222C304.667 89.8333 308.444 86.2222 308.5 81.6667C308.556 77.0556 304.944 73.4444 300.333 73.4444C295.833 73.4444 292.333 76.9444 292.278 81.4444C292.222 85.9444 295.722 89.6111 300.111 89.7222Z" fill="#F2F2F2"/>
<path d="M280.5 26.3889C282.778 26.3889 284.722 24.5556 284.833 22.2778C284.945 19.8889 282.889 17.8333 280.444 17.8889C278.111 17.9444 276.278 19.8333 276.278 22.1667C276.333 24.5 278.222 26.3889 280.5 26.3889Z" fill="#F2F2F2"/>
<path d="M320.167 110.444C325.167 110.444 329.222 106.389 329.222 101.389C329.222 96.4444 325.111 92.3333 320.167 92.3333C315.222 92.3333 311.056 96.4444 311.056 101.389C311.111 106.333 315.222 110.444 320.167 110.444Z" fill="#F2F2F2"/>
<path d="M300.278 131.056C305.722 131.111 310.222 126.722 310.333 121.333C310.389 115.778 305.944 111.222 300.333 111.278C294.778 111.278 290.555 115.611 290.555 121.167C290.5 126.722 294.778 131.056 300.278 131.056Z" fill="#F2F2F2"/>
<path d="M320.333 26.3889C322.667 26.2778 324.444 24.3889 324.389 22C324.333 19.6667 322.444 17.8333 320.111 17.8333C317.778 17.8333 315.889 19.6667 315.889 22.0556C315.889 24.5556 317.889 26.5 320.333 26.3889Z" fill="#F2F2F2"/>
<path d="M340.167 89.6111C344.444 89.5 347.944 85.9444 347.944 81.6111C348 77.0556 344.5 73.6111 339.944 73.6111C335.389 73.6111 331.944 77.1111 332 81.6667C332 86.1111 335.722 89.7222 340.167 89.6111Z" fill="#F2F2F2"/>
<path d="M339.833 47.6111C342.889 47.6667 345.5 45.1667 345.611 42.1111C345.667 39.5 343.944 36.4445 340.222 36.2778C336.944 36.1111 334.333 38.6111 334.333 41.8889C334.333 45 336.778 47.5556 339.833 47.6111Z" fill="#F2F2F2"/>
<path d="M340 130.944C345.389 130.944 349.889 126.389 349.778 120.944C349.667 115.611 345.278 111.333 339.944 111.333C334.5 111.389 330.055 115.889 330.167 121.278C330.278 126.667 334.667 130.944 340 130.944Z" fill="#F2F2F2"/>
<path d="M319.778 68.7778C323.611 69 326.944 66 327.222 62.1111C327.444 58.3333 324.389 54.8889 320.556 54.7222C316.722 54.5 313.389 57.5 313.111 61.3889C312.833 65.1111 315.889 68.5556 319.778 68.7778Z" fill="#F2F2F2"/>
<path d="M340.111 4.33333C341.333 4.22222 341.722 3.66667 341.889 1.94444C341.167 1.66667 340.389 1.33333 339.611 1.11111C338.5 0.777776 337.722 1.5 337.945 2.55555C338.167 3.77778 339 4.44444 340.111 4.33333Z" fill="#F2F2F2"/>
<path d="M280.056 68.7222C283.889 69 287.278 66.0556 287.556 62.1667C287.833 58.3333 284.833 54.8889 281 54.6667C277.167 54.4444 273.778 57.3889 273.5 61.2222C273.278 65.1111 276.167 68.4444 280.056 68.7222Z" fill="#F2F2F2"/>
<path d="M241.056 67.6667C244.722 67.6111 247.611 64.6111 247.556 60.9444C247.5 57.3333 244.444 54.3889 240.833 54.4444C237.222 54.5 234.278 57.5556 234.333 61.1667C234.333 64.7778 237.389 67.7222 241.056 67.6667Z" fill="#F2F2F2"/>
<path d="M459.111 43.6667C459.055 43.0556 458.667 42.7778 458.167 42.7778C458 42.7778 457.833 42.9444 457.667 43C457.944 43.3333 458.222 43.6667 458.444 44C458.778 43.8333 459.111 43.7222 459.111 43.6667Z" fill="#F2F2F2"/>
<path d="M240.833 150.611C246.444 150.667 251.167 146.056 251.222 140.444C251.278 134.833 246.667 130.167 241.056 130.111C236.111 130.056 230.833 133.611 230.722 140.278C230.667 146.444 235.389 150.389 240.833 150.611Z" fill="#F2F2F2"/>
<path d="M221.111 88.3333C225.278 88.3333 228.556 85.0556 228.556 80.9444C228.556 76.7778 225.389 73.5555 221.167 73.5C217 73.5 213.778 76.6667 213.778 80.8889C213.722 85.0555 217 88.3333 221.111 88.3333Z" fill="#F2F2F2"/>
<path d="M221.222 46.1667C223.889 46.1111 226 44 226.055 41.3333C226.111 38.5 223.889 36.3333 221.111 36.3889C218.444 36.4444 216.333 38.5 216.278 41.1667C216.167 43.9444 218.389 46.2222 221.222 46.1667Z" fill="#F2F2F2"/>
<path d="M240.944 109.389C245.722 109.389 249.556 105.556 249.611 100.722C249.611 95.8333 245.889 92.1111 241 92.1111C236.111 92.1111 232.333 95.8333 232.333 100.722C232.278 105.5 236.111 109.389 240.944 109.389Z" fill="#F2F2F2"/>
<path d="M260.778 3.5C261.667 3.5 262.278 2.94444 262.611 2.05556C262.778 1.61111 262.222 0.944444 261.722 1.05556C260.833 1.27778 259.944 1.61111 259.111 1.88889C259.167 3.05556 259.833 3.5 260.778 3.5Z" fill="#F2F2F2"/>
<path d="M260.833 46.8889C264.444 46.7222 266.333 44.1111 266.389 41.2222C266.444 38 263.667 35.4444 260.5 35.6111C257.389 35.7778 255.056 38.2778 255.111 41.4444C255.222 44.5556 257.722 47 260.833 46.8889Z" fill="#F2F2F2"/>
<path d="M260.722 130.222C266.056 130.222 270.444 125.889 270.5 120.611C270.389 115.667 266.944 110.944 260.944 110.778C255.667 110.667 251.111 114.611 251.056 120.556C250.944 125.889 255.389 130.222 260.722 130.222Z" fill="#F2F2F2"/>
<path d="M240.945 25.1111C242.889 25.1111 244.556 23.5 244.611 21.5556C244.667 19.5 242.889 17.7222 240.833 17.8333C238.833 17.9444 237.333 19.5556 237.389 21.5556C237.333 23.5 238.945 25.1111 240.945 25.1111Z" fill="#F2F2F2"/>
<path d="M260.889 88.8333C265.333 88.7778 268.833 85.0555 268.667 80.6111C268.5 76.3333 264.889 72.8889 260.556 72.9444C256.222 73.0555 252.778 76.6111 252.778 80.8889C252.778 85.3333 256.389 88.8889 260.889 88.8333Z" fill="#F2F2F2"/>
<path d="M280.555 110.444C285.555 110.444 289.555 106.389 289.555 101.389C289.555 96.3889 285.5 92.3333 280.5 92.3333C275.555 92.3333 271.444 96.5 271.444 101.389C271.5 106.333 275.611 110.444 280.555 110.444Z" fill="#F2F2F2"/>
<path d="M419.111 129.556C423.666 129.611 427.611 125.722 427.611 121.167C427.611 116.556 423.722 112.556 419.166 112.778C413.889 113 410.833 116.889 410.833 121.333C410.778 125.778 414.611 129.5 419.111 129.556Z" fill="#F2F2F2"/>
<path d="M439.111 190.444C444.334 190.333 448.722 186.444 448.834 180.722C448.945 175.333 444.667 170.833 439 170.778C433.5 170.778 429.056 175.167 429.111 180.611C429.167 186.111 433.722 190.611 439.111 190.444Z" fill="#F2F2F2"/>
<path d="M438.555 149.556C443.389 149.778 447.444 146.167 447.611 141.389C447.833 136.667 444 132.5 439.333 132.333C434.666 132.167 430.5 136.111 430.389 140.778C430.167 145.333 433.944 149.333 438.555 149.556Z" fill="#F2F2F2"/>
<path d="M419.389 45.7778C421.278 45.6667 423 43.9444 423.055 42C423.111 40 421.333 38.1667 419.222 38.1667C417.111 38.1667 415.444 39.8889 415.444 42.0556C415.5 44.1111 417.389 45.8889 419.389 45.7778Z" fill="#F2F2F2"/>
<path d="M419.056 88.1111C422.556 88.1667 425.556 85.3333 425.722 81.8333C425.889 78.1667 422.945 75.1111 419.278 75.0556C415.834 75 412.722 77.8889 412.556 81.3333C412.389 84.7778 415.5 88 419.056 88.1111Z" fill="#F2F2F2"/>
<path d="M438.944 108.222C442.778 108.278 445.778 105.333 445.889 101.5C446 97.7222 443 94.5556 439.222 94.4444C435.389 94.3333 432.055 97.5 432.111 101.333C432.111 105.167 435.167 108.222 438.944 108.222Z" fill="#F2F2F2"/>
<path d="M458.667 128.333C462.667 128.444 466 125.222 466.056 121.222C466.111 117.278 462.778 113.944 458.889 113.889C454.945 113.889 451.667 117.167 451.722 121.167C451.667 125.111 454.778 128.278 458.667 128.333Z" fill="#F2F2F2"/>
<path d="M458.722 86.6111C461.556 86.6667 463.778 84.5 463.889 81.6667C463.944 78.8889 461.778 76.5556 459.056 76.3889C456.222 76.2778 453.722 78.6667 453.722 81.5C453.667 84.2778 455.944 86.6111 458.722 86.6111Z" fill="#F2F2F2"/>
<path d="M438.555 66.2778C441.166 66.5 443.389 64.6111 443.555 62.0556C443.722 59.5 441.778 57.2778 439.278 57.1111C436.833 56.9444 434.5 59 434.444 61.5C434.333 63.9444 436.166 66.1111 438.555 66.2778Z" fill="#F2F2F2"/>
<path d="M458.611 169.444C463.333 169.556 467.389 165.667 467.444 160.944C467.5 156.222 463.611 152.222 458.889 152.167C454.278 152.111 450.389 155.889 450.222 160.5C450.111 165.278 453.889 169.333 458.611 169.444Z" fill="#F2F2F2"/>
<path d="M458.778 210.111C464.056 209.889 468.444 206.278 468.5 200.444C468.556 194.889 464.333 190.833 458.889 190.722C453.611 190.611 449.222 195 449.167 200.333C449.111 205.222 452.667 209.889 458.778 210.111Z" fill="#F2F2F2"/>
<path d="M359.833 130.611C354.111 130.556 349.333 135.389 349.445 141.167C349.556 146.778 354.278 151.389 359.889 151.333C365.5 151.278 370.111 146.611 370.111 141C370.056 135.333 365.445 130.667 359.833 130.611Z" fill="#F2F2F2"/>
<path d="M379.556 130.389C384.722 130.389 388.834 126.389 388.834 121.222C388.834 116.111 384.722 111.944 379.611 111.944C374.445 111.944 370.389 116 370.333 121.167C370.333 126.333 374.334 130.389 379.556 130.389Z" fill="#F2F2F2"/>
<path d="M359.5 110.056C364.389 110.333 368.333 106.167 368.444 101.722C368.555 96.8889 364.889 92.9445 360.111 92.7222C354.278 92.5 350.944 97.4445 350.944 101.222C351 106 354.778 109.944 359.5 110.056Z" fill="#F2F2F2"/>
<path d="M379.444 89C383.611 89.0556 386.944 85.8333 387 81.7222C387.055 77.5556 383.889 74.2778 379.722 74.1667C375.555 74.0556 372.278 77.2778 372.222 81.4444C372.111 85.6111 375.278 88.8889 379.444 89Z" fill="#F2F2F2"/>
<path d="M359.722 68.3333C363.5 68.3333 366.333 65.5556 366.389 61.8333C366.445 58.1667 363.556 55.1111 359.945 55C356.278 54.8889 353.056 58.0556 353.056 61.7778C353.111 65.3889 356 68.3333 359.722 68.3333Z" fill="#F2F2F2"/>
<path d="M359.778 25.7778C361.722 25.7778 363.389 24.1111 363.445 22.1667C363.445 20.1667 361.833 18.5556 359.833 18.5556C357.778 18.5556 356.167 20.1667 356.167 22.1667C356.167 24.0556 357.778 25.7222 359.778 25.7778Z" fill="#F2F2F2"/>
<path d="M399.278 150.611C404.222 150.556 408.945 147.111 409 141C409.056 135.333 404.667 131.444 399.667 131.333C394.333 131.222 389.889 135.333 389.722 140.722C389.611 146.056 393.945 150.5 399.278 150.611Z" fill="#F2F2F2"/>
<path d="M399.444 67.6111C402.722 67.5556 405.444 64.7222 405.333 61.5C405.222 58.3333 402.5 55.8333 399.333 55.8333C396.111 55.8333 393.5 58.3889 393.5 61.6111C393.444 64.9444 396.167 67.6667 399.444 67.6111Z" fill="#F2F2F2"/>
<path d="M399.334 24.6667C400.778 24.7222 402 23.5 402 22.1111C402 20.7778 400.667 19.5 399.334 19.5C398.167 19.5556 396.889 20.7778 396.834 21.9444C396.667 23.2778 397.945 24.6111 399.334 24.6667Z" fill="#F2F2F2"/>
<path d="M379.556 46.9444C382.333 46.9444 384.556 44.7222 384.556 41.9444C384.556 39.1667 382.333 36.9444 379.611 36.8889C376.889 36.8889 374.556 39.1667 374.556 41.8889C374.5 44.6111 376.833 46.9444 379.556 46.9444Z" fill="#F2F2F2"/>
<path d="M399.389 109.389C403.833 109.389 407.389 105.778 407.389 101.278C407.333 96.7778 403.778 93.3333 399.222 93.3889C394.778 93.4444 391.444 96.8333 391.444 101.278C391.389 105.889 394.889 109.389 399.389 109.389Z" fill="#F2F2F2"/>
<path d="M419.389 170.667C425.278 170.5 428.944 165.889 429 160.833C429.111 155.389 424.611 150.944 419.167 151C413.667 151 409.222 155.444 409.389 160.889C409.5 166.944 414.389 170.833 419.389 170.667Z" fill="#F2F2F2"/>
<path d="M299.667 447.889C305.111 447.944 310.167 444 310.111 437.5C310.056 430.722 304.778 427.222 299.945 427.111C294.222 426.944 289.389 431.667 289.333 437.389C289.111 442.111 292.722 447.833 299.667 447.889Z" fill="#F2F2F2"/>
<path d="M280.667 211.056C275.945 211 271.945 214.778 272 219.667C272.111 224.889 276.056 228.056 280.5 228.056C285.778 228.056 289 223.833 289 219.667C289.056 215 285.278 211.056 280.667 211.056Z" fill="#F2F2F2"/>
<path d="M280.722 169.778C275.611 169.722 270.389 173.667 270.445 179.944C270.445 185.556 274.833 190 280.445 190.056C286.167 190.111 290.778 185.611 290.778 179.944C290.722 174.444 286.222 169.833 280.722 169.778Z" fill="#F2F2F2"/>
<path d="M295.667 319.444C295.722 321.611 297.611 323.389 299.778 323.278C302 323.222 303.667 321.389 303.556 319.111C303.5 316.833 301.778 315.222 299.444 315.278C297.278 315.444 295.611 317.167 295.667 319.444Z" fill="#F2F2F2"/>
<path d="M280.056 385.889C284.445 385.778 287.778 382.333 287.722 377.889C287.667 373.556 284.056 370 279.833 370.056C275.556 370.111 271.722 374.056 271.945 378.278C272.167 382.389 275.389 386 280.056 385.889Z" fill="#F2F2F2"/>
<path d="M221.055 129.722C226.167 129.722 230.333 125.611 230.333 120.5C230.333 115.389 226.167 111.278 221 111.333C215.833 111.389 211.833 115.5 211.889 120.722C212.055 125.722 216.055 129.667 221.055 129.722Z" fill="#F2F2F2"/>
<path d="M305.167 279.722C305.167 277.056 303.056 274.889 300.389 274.889C297.722 274.889 295.611 277 295.611 279.667C295.611 282.389 297.611 284.444 300.333 284.5C303.056 284.444 305.111 282.389 305.167 279.722Z" fill="#F2F2F2"/>
<path d="M280 427.389C285.333 427.333 289.611 422.944 289.556 417.611C289.556 412.778 285.833 408 279.778 408.056C274 408.167 270.222 412.5 270.222 417.778C270.222 423.167 274.722 427.5 280 427.389Z" fill="#F2F2F2"/>
<path d="M260.722 190.167C255.055 190.167 251.111 194.556 251.167 199.889C251.167 205.111 255.389 209.389 260.667 209.389C266.055 209.389 270.222 205.444 270.444 199.833C270.167 194.444 266.5 190.167 260.722 190.167Z" fill="#F2F2F2"/>
<path d="M285.055 299.167C285.222 296.667 283.167 294.389 280.667 294.333C278.278 294.278 276.167 296.222 276.055 298.667C275.944 301 277.944 303.222 280.333 303.333C282.667 303.5 284.833 301.556 285.055 299.167Z" fill="#F2F2F2"/>
<path d="M260 407.056C264.889 407.111 269.111 403 269.167 398.056C269.222 393.056 265.278 388.944 260.278 388.833C255.167 388.722 250.889 392.833 250.944 397.944C250.944 402.833 255.111 407 260 407.056Z" fill="#F2F2F2"/>
<path d="M280.5 252.722C277.056 252.722 274.056 255.722 274.056 259.167C274.056 262.722 277.278 265.889 280.722 265.722C284.167 265.556 287 262.556 286.945 259.056C286.945 255.611 284 252.722 280.5 252.722Z" fill="#F2F2F2"/>
<path d="M274.167 338.333C274.111 341.5 276.778 344.222 279.944 344.167C283.056 344.167 285.555 341.667 285.611 338.556C285.667 335.389 283 332.611 279.833 332.667C276.833 332.722 274.222 335.333 274.167 338.333Z" fill="#F2F2F2"/>
<path d="M324.556 299.333C324.445 296.944 322.278 294.944 319.889 295.111C317.611 295.278 315.667 297.278 315.667 299.5C315.667 301.833 317.833 303.944 320.167 303.889C322.667 303.833 324.667 301.722 324.556 299.333Z" fill="#F2F2F2"/>
<path d="M320.111 253.389C316.667 253.444 313.667 256.5 313.667 259.889C313.667 263.333 316.667 266.389 320.111 266.444C323.667 266.5 326.778 263.333 326.722 259.778C326.611 256.278 323.556 253.333 320.111 253.389Z" fill="#F2F2F2"/>
<path d="M320.167 211.722C314.722 211.722 311.556 216.111 311.611 220.444C311.667 225.111 315.611 228.778 320.278 228.722C324.944 228.667 328.722 224.778 328.667 220.167C328.611 216.056 325.555 211.722 320.167 211.722Z" fill="#F2F2F2"/>
<path d="M320.222 170.5C314.611 170.444 310.167 174.778 310.056 180.389C309.944 186.167 314.389 190.722 320.111 190.722C325.833 190.722 330.333 186.222 330.333 180.5C330.278 174.944 325.889 170.556 320.222 170.5Z" fill="#F2F2F2"/>
<path d="M319.611 386.611C323.944 386.556 327.444 383 327.389 378.667C327.389 374.333 323.833 370.833 319.556 370.778C315.167 370.722 311.5 374.444 311.611 378.889C311.667 383.222 315.333 386.667 319.611 386.611Z" fill="#F2F2F2"/>
<path d="M313.722 338.944C313.611 342 316.278 344.833 319.389 344.944C322.444 345.056 325.222 342.333 325.278 339.167C325.333 336 322.667 333.333 319.5 333.389C316.444 333.389 313.833 335.889 313.722 338.944Z" fill="#F2F2F2"/>
<path d="M293.056 359.111C293.111 362.833 296.055 365.611 299.778 365.556C303.444 365.5 306.389 362.5 306.389 358.833C306.333 355.111 303.111 352.056 299.389 352.167C295.778 352.333 293 355.389 293.056 359.111Z" fill="#F2F2F2"/>
<path d="M300.333 191.167C295.222 191.167 291.167 195.278 291.167 200.5C291.167 205.722 295.222 209.667 300.445 209.667C305.611 209.611 309.667 205.556 309.667 200.389C309.611 195.222 305.445 191.167 300.333 191.167Z" fill="#F2F2F2"/>
<path d="M300.222 232.722C296.167 232.778 293.056 235.944 293.056 240C293.056 244.222 296.333 247.444 300.5 247.389C304.556 247.333 307.722 244.111 307.722 240.056C307.722 235.944 304.445 232.667 300.222 232.722Z" fill="#F2F2F2"/>
<path d="M299.722 407.278C304.611 407.278 308.556 403.222 308.444 398.333C308.333 393.611 304.333 389.778 299.556 389.833C294.778 389.889 291 393.833 291 398.667C291.056 403.444 294.889 407.278 299.722 407.278Z" fill="#F2F2F2"/>
<path d="M319.667 428.056C325.555 427.944 329.167 423.389 329.167 418.222C329.055 412.889 324.667 408.556 319.333 408.722C313.889 408.889 309.722 412.944 309.833 418.556C310 424.5 314.444 428.167 319.667 428.056Z" fill="#F2F2F2"/>
<path d="M518.278 146.167C521.111 146.167 523.278 144 523.389 141.167C523.5 138.222 521.278 135.833 518.333 135.778C515.445 135.722 513.056 138 513.056 140.944C513.056 143.889 515.333 146.167 518.278 146.167Z" fill="#F2F2F2"/>
<path d="M538 165.444C540.722 165.444 542.834 163.278 542.722 160.611C542.611 158.056 540.5 156.111 537.889 156.167C535.334 156.222 533.333 158.278 533.333 160.889C533.389 163.444 535.389 165.444 538 165.444Z" fill="#F2F2F2"/>
<path d="M557.944 225.444C560.889 225.389 563.166 223.111 563.111 220.167C563.111 217.278 560.778 214.944 557.833 214.944C554.778 214.944 552.389 217.389 552.5 220.389C552.611 223.333 555 225.5 557.944 225.444Z" fill="#F2F2F2"/>
<path d="M537.722 123.778C539.055 123.944 540.389 122.833 540.5 121.389C540.611 120 539.5 118.667 538.111 118.556C536.833 118.444 535.444 119.833 535.389 121.111C535.444 122.389 536.5 123.611 537.722 123.778Z" fill="#F2F2F2"/>
<path d="M538 206.556C541.5 206.556 544.278 203.833 544.222 200.333C544.167 196.944 541.555 194.333 538.167 194.278C534.611 194.222 531.944 196.889 532 200.5C532 203.944 534.555 206.5 538 206.556Z" fill="#F2F2F2"/>
<path d="M259.722 365.611C263.944 365.778 267.278 362.722 267.389 358.556C267.5 354.333 264.444 351 260.278 350.944C256.056 350.833 252.778 354 252.722 358.167C252.667 362.222 255.667 365.444 259.722 365.611Z" fill="#F2F2F2"/>
<path d="M559.5 142.111C559.055 141.333 558.667 140.5 558.167 139.778C557.555 138.889 556.389 139.111 556 140.111C555.611 141.056 555.833 142.056 556.555 142.667C557.278 143.333 558.111 143.167 559.5 142.111Z" fill="#F2F2F2"/>
<path d="M597.278 262.389C598.667 262.5 599.944 261.389 600 259.944C600.055 258.611 598.833 257.278 597.5 257.222C596.333 257.222 595.111 258.333 594.944 259.556C594.778 260.944 595.889 262.278 597.278 262.389Z" fill="#F2F2F2"/>
<path d="M577.778 203.278C579.389 203.222 580.5 202.056 580.5 200.444C580.5 198.722 579.167 197.444 577.5 197.5C576.056 197.556 574.722 198.889 574.722 200.389C574.722 202.056 576.056 203.333 577.778 203.278Z" fill="#F2F2F2"/>
<path d="M518.278 104.056C519.889 104 521 102.778 520.889 101.111C520.834 99.6667 519.667 98.5555 518.167 98.5555C516.611 98.5555 515.389 99.8889 515.556 101.5C515.667 103 516.834 104.111 518.278 104.056Z" fill="#F2F2F2"/>
<path d="M557.833 184.722C560.055 184.722 562 182.667 561.889 180.389C561.778 178.222 559.889 176.556 557.667 176.611C555.444 176.667 553.722 178.5 553.833 180.722C553.889 182.889 555.722 184.722 557.833 184.722Z" fill="#F2F2F2"/>
<path d="M577.556 244.222C579.722 244.278 581.667 242.556 581.778 240.333C581.944 237.944 580.222 236.056 577.778 235.944C575.333 235.889 573.5 237.667 573.5 240.056C573.556 242.278 575.333 244.167 577.556 244.222Z" fill="#F2F2F2"/>
<path d="M538.056 247C542 246.944 545 243.889 544.944 239.944C544.889 236.111 541.667 233 537.778 233.111C534.111 233.222 531 236.389 531 240.056C531.056 243.889 534.222 247.056 538.056 247Z" fill="#F2F2F2"/>
<path d="M260.611 272.722C257.111 272.778 254.278 275.778 254.444 279.333C254.611 282.722 257.5 285.5 260.833 285.389C264.389 285.278 267.222 282.278 267.056 278.778C266.889 275.333 264.056 272.611 260.611 272.722Z" fill="#F2F2F2"/>
<path d="M498.444 248.944C503.333 248.944 507.222 245 507.278 240.111C507.278 235.278 503.333 231.222 498.5 231.222C493.667 231.167 489.611 235.111 489.555 239.944C489.444 244.944 493.444 248.944 498.444 248.944Z" fill="#F2F2F2"/>
<path d="M260.722 231.444C256.445 231.444 252.889 235 252.833 239.278C252.778 243.778 256.333 247.333 260.833 247.333C265.167 247.333 268.667 243.889 268.722 239.5C268.722 235.056 265.111 231.389 260.722 231.444Z" fill="#F2F2F2"/>
<path d="M260.222 312.667C256.889 312.611 254.111 315.278 254.056 318.556C254 321.889 256.667 324.556 260.056 324.556C263.5 324.556 266.056 322 266 318.556C266 315.278 263.444 312.778 260.222 312.667Z" fill="#F2F2F2"/>
<path d="M498.722 208.5C503.167 208.389 506.611 204.722 506.555 200.278C506.444 195.667 502.833 192.167 498.167 192.333C493.667 192.5 490.278 196 490.333 200.556C490.389 205.167 494.055 208.667 498.722 208.5Z" fill="#F2F2F2"/>
<path d="M498.167 167.833C502.056 167.944 505.278 164.944 505.445 161.056C505.611 157.222 502.445 153.889 498.611 153.778C494.778 153.667 491.445 156.778 491.334 160.611C491.222 164.389 494.278 167.667 498.167 167.833Z" fill="#F2F2F2"/>
<path d="M518.278 187.333C521.945 187.333 524.833 184.389 524.833 180.667C524.833 176.944 522 174 518.333 173.944C514.667 173.889 511.611 176.778 511.556 180.444C511.445 184.167 514.5 187.333 518.278 187.333Z" fill="#F2F2F2"/>
<path d="M518.167 227.833C522.945 227.833 525.722 224.389 525.833 220.278C525.945 216.056 522.445 212.667 518.222 212.611C514 212.611 510.611 215.944 510.556 220.167C510.556 224 513.333 227.833 518.167 227.833Z" fill="#F2F2F2"/>
<path d="M498.444 126.5C501.556 126.5 503.833 124.167 503.778 121.056C503.722 118 501.333 115.667 498.278 115.778C495.278 115.889 492.944 118.389 493.056 121.444C493.167 124.333 495.5 126.5 498.444 126.5Z" fill="#F2F2F2"/>
<path d="M339.444 407.667C344.389 407.611 348.444 403.444 348.389 398.5C348.333 393.556 344.278 389.444 339.278 389.444C334.278 389.444 330.167 393.5 330.111 398.444C330.111 403.556 334.333 407.778 339.444 407.667Z" fill="#F2F2F2"/>
<path d="M498.278 84.2222C499.944 84.2778 501.167 83.1667 501.167 81.5556C501.167 79.9444 499.944 78.7778 498.333 78.8889C496.944 78.9444 495.722 80.1667 495.722 81.5556C495.667 82.9444 496.833 84.1111 498.278 84.2222Z" fill="#F2F2F2"/>
<path d="M419.389 229.556C413.667 229.389 408.722 233.833 408.666 240.111C408.611 245.778 413.444 250.611 419.111 250.667C424.833 250.722 429.611 246 429.667 240.278C429.833 235.444 426.222 229.722 419.389 229.556Z" fill="#F2F2F2"/>
<path d="M399.5 169.889C393.555 169.833 388.778 174.5 388.722 180.444C388.667 186.444 393.222 191.111 399.167 191.333C405.167 191.556 410.167 186.556 410.111 180.667C410 174.667 405.444 169.944 399.5 169.889Z" fill="#F2F2F2"/>
<path d="M320.111 130.333C314.222 130.333 309.556 135.111 309.556 141.056C309.556 146.944 314.333 151.667 320.222 151.667C326 151.667 330.889 146.667 330.778 140.944C330.667 135 326 130.278 320.111 130.333Z" fill="#F2F2F2"/>
<path d="M340.278 150C334.389 149.833 329.445 154.5 329.222 160.333C329 166.444 333.611 171.389 339.611 171.556C345.389 171.889 350.611 167.111 350.667 160.944C350.833 155.111 346.111 150.167 340.278 150Z" fill="#F2F2F2"/>
<path d="M419.055 189.667C413 189.722 408.333 194.556 408.444 200.667C408.555 206.611 413.333 211.167 419.278 211.111C425.222 211.056 429.889 206.389 429.944 200.444C429.944 194.444 425.111 189.611 419.055 189.667Z" fill="#F2F2F2"/>
<path d="M339.667 273.389C336.222 273.556 333.556 276.389 333.667 279.833C333.722 283.222 336.556 286 339.944 286.056C343.444 286.056 346.389 283.056 346.278 279.611C346.222 276 343.222 273.222 339.667 273.389Z" fill="#F2F2F2"/>
<path d="M379.722 150.111C373.944 150 368.944 154.889 368.944 160.667C368.889 166.667 373.833 171.444 379.444 171.444C385.333 171.444 390.167 166.778 390.222 160.889C390.444 155.222 385.611 150.222 379.722 150.111Z" fill="#F2F2F2"/>
<path d="M418.444 369.278C424.055 369.333 428.833 364.722 428.833 359.111C428.833 353.778 425.167 348.833 418.722 348.667C412.278 348.5 408.222 353.5 408.167 359C408.111 364.5 412.833 369.222 418.444 369.278Z" fill="#F2F2F2"/>
<path d="M398.778 388.778C403.333 388.778 408.611 385.111 408.667 378.889C408.722 373.167 404.444 368.778 398.778 368.722C393.167 368.667 388.722 373.111 388.667 378.722C388.722 384.278 393.278 388.833 398.778 388.778Z" fill="#F2F2F2"/>
<path d="M438.944 249.167C433.056 249.222 428.333 254 428.278 259.889C428.222 265.389 433 270.778 439.278 270.611C445.167 270.444 449.833 265.722 449.778 259.778C449.667 253.833 444.833 249.111 438.944 249.167Z" fill="#F2F2F2"/>
<path d="M439.222 209.556C433.222 209.444 428.278 214.278 428.278 220.278C428.278 226.111 433.056 230.944 438.889 230.944C444.722 231 449.611 226.222 449.667 220.389C449.778 214.5 445.056 209.611 439.222 209.556Z" fill="#F2F2F2"/>
<path d="M438.5 288.833C432.667 288.722 427.778 293.556 427.722 299.333C427.667 305.167 432.444 310.056 438.333 310.056C444 310.056 448.889 305.389 449 299.722C449.111 293.944 444.278 288.944 438.5 288.833Z" fill="#F2F2F2"/>
<path d="M438.445 349.778C444.334 349.722 449.167 344.611 449.056 339C449 333.167 444.111 328.389 438.222 328.444C432.278 328.5 427.667 333.278 427.611 339.222C427.611 344.944 432.611 349.833 438.445 349.778Z" fill="#F2F2F2"/>
<path d="M241 210.278C235.889 210.222 231.722 214.333 231.722 219.5C231.667 224.667 235.722 228.778 240.889 228.778C246.056 228.833 250.167 224.778 250.167 219.611C250.167 214.444 246.111 210.333 241 210.278Z" fill="#F2F2F2"/>
<path d="M240.056 386.833C244.833 386.944 248.833 383.167 249 378.444C249.167 373.444 245.389 369.389 240.5 369.333C235.5 369.222 231.611 373 231.556 378C231.5 382.833 235.222 386.722 240.056 386.833Z" fill="#F2F2F2"/>
<path d="M220.444 367.167C225.944 367.056 229.333 362.611 229.333 358.389C229.278 353.333 225.333 349.389 220.278 349.444C215.389 349.5 211.5 353.444 211.556 358.389C211.667 363.222 215.611 367.167 220.444 367.167Z" fill="#F2F2F2"/>
<path d="M240.945 251.333C236.611 251.333 233.111 254.833 233.056 259.167C233.056 263.667 236.667 267.222 241.111 267.167C245.389 267.056 248.889 263.444 248.833 259.167C248.833 254.833 245.222 251.333 240.945 251.333Z" fill="#F2F2F2"/>
<path d="M220.944 189.333C215.778 189.444 210.778 193.278 210.722 199.667C210.667 205.611 215.167 210 221.111 210.167C227.444 209.944 231.556 205.111 231.556 199.667C231.556 193.944 226.667 189.222 220.944 189.333Z" fill="#F2F2F2"/>
<path d="M240.889 169.389C235.056 169.444 230.444 174 230.389 179.778C230.333 185.722 235 190.5 240.889 190.556C246.778 190.611 251.5 185.889 251.5 179.944C251.5 174.056 246.833 169.389 240.889 169.389Z" fill="#F2F2F2"/>
<path d="M280.667 130.333C274.833 130.278 269.944 135.056 269.889 140.889C269.833 146.722 274.611 151.611 280.444 151.667C286.278 151.722 291.167 146.944 291.222 141.111C291.278 135.222 286.5 130.389 280.667 130.333Z" fill="#F2F2F2"/>
<path d="M261.055 149.389C255.111 149.222 250.278 153.833 250 159.667C249.722 166.333 255.333 170.944 260.444 170.889C265.833 171.222 271.389 166.778 271.5 160.278C271.611 154.389 266.944 149.5 261.055 149.389Z" fill="#F2F2F2"/>
<path d="M300.389 150.056C294.556 150.056 289.667 154.889 289.611 160.722C289.556 166.556 294.444 171.5 300.167 171.556C306.056 171.667 311.111 166.556 311.056 160.722C311.056 154.611 305.722 149.944 300.389 150.056Z" fill="#F2F2F2"/>
<path d="M241.278 291.833C237.389 291.611 234.111 294.611 233.833 298.5C233.611 302.278 236.667 305.667 240.556 305.889C244.389 306.111 247.722 303.056 248 299.222C248.222 295.389 245.167 292 241.278 291.833Z" fill="#F2F2F2"/>
<path d="M240.222 331C236 331.056 232.833 334.278 232.833 338.5C232.833 342.722 236 345.944 240.222 345.944C244.555 346 247.833 342.667 247.778 338.333C247.667 334.111 244.389 330.944 240.222 331Z" fill="#F2F2F2"/>
<path d="M359.722 170.056C354 170.111 349.222 174.778 349.167 180.444C349.111 186.278 353.889 191.167 359.722 191.167C365.611 191.222 370.445 186.444 370.445 180.611C370.389 174.778 365.556 170 359.722 170.056Z" fill="#F2F2F2"/>
<path d="M359.833 292.445C356 292.389 352.778 295.556 352.722 299.389C352.667 303.222 355.778 306.444 359.667 306.5C363.556 306.556 366.722 303.444 366.778 299.556C366.833 295.667 363.722 292.5 359.833 292.445Z" fill="#F2F2F2"/>
<path d="M359.722 252.056C355.389 252.111 351.944 255.611 352 259.944C352.055 264.611 355.833 267.722 359.889 267.722C364.111 267.722 367.667 264 367.667 259.778C367.611 255.556 364 252 359.722 252.056Z" fill="#F2F2F2"/>
<path d="M360.222 211C355.222 210.722 350.778 214.778 350.5 219.833C350.222 224.722 354.167 229.056 359.111 229.389C364.333 229.722 368.611 225.944 368.944 220.778C369.222 215.667 365.333 211.278 360.222 211Z" fill="#F2F2F2"/>
<path d="M358.667 346.5C362.889 346.722 366.222 343.722 366.5 339.556C366.722 335.389 363.667 332 359.556 331.722C355.278 331.444 351.945 334.722 351.722 338.667C351.5 342.833 354.556 346.333 358.667 346.5Z" fill="#F2F2F2"/>
<path d="M379 408.556C384.555 408.5 389 403.889 388.889 398.333C388.778 392.833 384.389 388.556 378.889 388.611C372.611 388.667 369 393.833 368.944 398.444C368.889 404 373.5 408.611 379 408.556Z" fill="#F2F2F2"/>
<path d="M359.111 387.5C363.889 387.5 367.833 383.667 367.889 378.889C367.945 373.778 363.556 369.778 359.111 369.944C354.889 369.722 350.167 373.667 350.333 378.889C350.445 383.667 354.278 387.444 359.111 387.5Z" fill="#F2F2F2"/>
<path d="M340.111 232.167C335.556 232.111 332 235.556 332 240.056C332 244.333 335.556 247.944 339.778 248.056C344.167 248.167 347.889 244.5 347.889 240.056C347.889 235.667 344.5 232.222 340.111 232.167Z" fill="#F2F2F2"/>
<path d="M359.222 428.611C364.889 428.556 369.444 423.889 369.333 418.222C369.222 412.667 364.722 408.222 359.167 408.222C353.444 408.222 348.889 412.778 348.944 418.444C348.944 424.111 353.555 428.667 359.222 428.611Z" fill="#F2F2F2"/>
<path d="M339.333 313.444C336.111 313.444 333.444 315.889 333.333 319.111C333.222 322.222 336.055 325.222 339.222 325.278C342.333 325.333 345.055 322.722 345.167 319.556C345.333 316.167 342.722 313.5 339.333 313.444Z" fill="#F2F2F2"/>
<path d="M340.111 190.889C334.722 190.833 330.444 195.056 330.444 200.444C330.444 205.556 334.333 210.056 340.167 209.944C345.944 209.833 349.389 205.556 349.555 200.389C349.333 194.722 345.167 190.944 340.111 190.889Z" fill="#F2F2F2"/>
<path d="M339.611 366.222C343.667 366.111 346.667 362.944 346.667 358.833C346.611 354.667 343.389 351.444 339.222 351.556C335.056 351.611 331.944 354.944 332 359.111C332.056 363.278 335.333 366.389 339.611 366.222Z" fill="#F2F2F2"/>
<path d="M220.5 326.778C224.944 326.778 228.5 323.222 228.556 318.778C228.611 314.222 224.945 310.5 220.389 310.5C216 310.5 212.333 314.111 212.278 318.5C212.278 323.056 215.944 326.778 220.5 326.778Z" fill="#F2F2F2"/>
<path d="M379.445 190.056C373.111 190.167 369.222 195 369.278 200.389C369.333 207.389 374.889 210.833 379.778 210.778C385.389 210.722 390.056 206 390 200.389C389.833 194.778 385.667 190 379.445 190.056Z" fill="#F2F2F2"/>
<path d="M378.833 367.722C383.833 367.778 387.722 363.889 387.778 359C387.778 354.056 383.833 350.167 378.944 350.167C374 350.167 370.111 354.167 370.167 359.111C370.167 363.889 374 367.667 378.833 367.722Z" fill="#F2F2F2"/>
<path d="M379.056 327.389C383.445 327.333 387 323.667 386.945 319.222C386.889 314.722 383.445 311.278 378.889 311.278C374.389 311.278 370.833 314.722 370.833 319.222C370.833 323.778 374.556 327.5 379.056 327.389Z" fill="#F2F2F2"/>
<path d="M379.555 271.444C374.889 271.556 371.444 274.944 371.389 279.722C371.333 284.278 375.167 288 379.667 287.944C384.222 287.889 387.889 284.167 387.833 279.611C387.778 275.056 384.111 271.389 379.555 271.444Z" fill="#F2F2F2"/>
<path d="M399.5 209.889C393.778 210 389.389 213.944 389.056 220.056C388.778 225.611 393.445 230.444 399.111 230.556C404.834 230.722 409.722 226 409.722 220.278C409.778 214.667 405.167 210 399.5 209.889Z" fill="#F2F2F2"/>
<path d="M419.333 269.722C413.667 269.667 409.278 274 409.278 279.667C409.278 285.278 413.722 289.667 419.389 289.556C424.833 289.5 429.167 285.056 429.167 279.611C429.111 274.111 424.778 269.778 419.333 269.722Z" fill="#F2F2F2"/>
<path d="M398.889 308.444C403.889 308.389 407.944 304.167 407.778 299.278C407.611 294.333 403.389 290.333 398.444 290.5C393.611 290.667 389.722 294.722 389.722 299.556C389.778 304.5 393.833 308.556 398.889 308.444Z" fill="#F2F2F2"/>
<path d="M399.389 250.5C394.056 250.5 390 254.556 390 259.944C390.056 265.278 394.111 269.333 399.5 269.222C404.833 269.167 408.778 265.056 408.722 259.667C408.667 254.444 404.611 250.5 399.389 250.5Z" fill="#F2F2F2"/>
<path d="M398.833 348.333C403.945 348.278 408.056 344.111 407.945 338.944C407.889 333.833 403.667 329.833 398.5 329.944C393.5 330.056 389.556 334.111 389.556 339.111C389.556 344.278 393.667 348.389 398.833 348.333Z" fill="#F2F2F2"/>
<path d="M418.389 329.278C423.667 329.333 428.334 325.111 428.334 319.5C428.389 313.944 424.167 309.556 418.667 309.5C413.167 309.444 408.722 313.778 408.611 319.222C408.556 324.556 413 329.222 418.389 329.278Z" fill="#F2F2F2"/>
<path d="M379.389 230.889C374.389 231 370.444 235.111 370.444 240.111C370.5 245.111 374.5 249.167 379.5 249.222C384.555 249.278 388.833 245.056 388.778 240C388.722 234.889 384.5 230.778 379.389 230.889Z" fill="#F2F2F2"/>
<path d="M240.111 529.222C235.945 529.278 232.833 532.611 232.945 536.833C233.056 540.889 236.167 543.889 240.278 543.889C244.5 543.889 247.667 540.667 247.611 536.5C247.611 532.333 244.278 529.111 240.111 529.222Z" fill="#F2F2F2"/>
<path d="M359 529.833C354.889 529.889 351.611 533.278 351.778 537.444C351.889 541.5 355.056 544.5 359.222 544.5C363.333 544.444 366.444 541.389 366.444 537.278C366.444 533.111 363.167 529.778 359 529.833Z" fill="#F2F2F2"/>
<path d="M378.778 594.333C377.611 594.445 376.611 595.445 376.556 596.611C376.5 597.889 377.611 599 378.889 599.056C380.167 599.056 381.278 597.945 381.222 596.667C381.222 595.389 380 594.278 378.778 594.333Z" fill="#F2F2F2"/>
<path d="M438.389 448.889C433.444 448.889 429.333 453 429.333 457.944C429.278 462.944 433.333 467 438.333 467C443.333 467 447.389 463 447.389 458C447.389 453.056 443.278 448.889 438.389 448.889Z" fill="#F2F2F2"/>
<path d="M379.166 509.389C374.5 509.278 370.889 512.833 370.889 517.444C370.889 521.889 374.389 525.444 378.889 525.444C383.389 525.444 386.944 522 387 517.556C387.055 513.056 383.611 509.5 379.166 509.389Z" fill="#F2F2F2"/>
<path d="M379.333 468.111C374 467.889 369.445 472 369.222 477.333C369.056 481.889 372.111 487.278 378.722 487.556C383.833 487.778 388.389 483.889 388.667 478.111C388.889 472.833 384.667 468.333 379.333 468.111Z" fill="#F2F2F2"/>
<path d="M379.055 551.222C375.778 551.167 373.111 553.611 373 556.833C372.889 560.111 375.666 563 378.889 563C382.055 563 384.722 560.333 384.778 557.167C384.833 553.889 382.333 551.278 379.055 551.222Z" fill="#F2F2F2"/>
<path d="M339.333 550.611C335.889 550.611 332.833 553.556 332.778 557C332.722 560.556 335.833 563.611 339.444 563.556C342.944 563.5 345.833 560.5 345.833 557.056C345.778 553.556 342.778 550.611 339.333 550.611Z" fill="#F2F2F2"/>
<path d="M359 572.111C356.333 572.167 354.278 574.278 354.333 577C354.389 579.722 356.5 581.778 359.222 581.722C361.889 581.667 363.944 579.556 363.889 576.833C363.833 574.111 361.722 572.056 359 572.111Z" fill="#F2F2F2"/>
<path d="M339.333 593.444C337.611 593.444 336.167 594.889 336.111 596.611C336.055 598.389 337.389 599.889 339.167 599.944C340.944 600.056 342.611 598.444 342.611 596.611C342.556 594.944 341 593.444 339.333 593.444Z" fill="#F2F2F2"/>
<path d="M339.167 508.833C334.556 508.944 330.778 512.778 330.722 517.389C330.722 522.167 334.611 526 339.444 525.944C344.111 525.889 347.833 522.111 347.833 517.444C347.833 512.667 343.889 508.722 339.167 508.833Z" fill="#F2F2F2"/>
<path d="M339.722 467.556C334.111 467.222 329.278 471.722 329.056 477.389C328.778 483 333.278 487.833 338.889 488.056C344.556 488.278 349.333 483.944 349.556 478.222C349.722 472.778 345.889 467.889 339.722 467.556Z" fill="#F2F2F2"/>
<path d="M418.722 468.889C413.833 468.778 409.833 472.667 409.722 477.556C409.611 482.611 413.5 486.667 418.555 486.667C423.444 486.667 427.389 482.778 427.444 477.889C427.5 473.111 423.5 469 418.722 468.889Z" fill="#F2F2F2"/>
<path d="M319.611 488.056C314.389 488 310 492.056 309.944 497.333C309.889 503.056 314 507.056 319.389 507.167C324.778 507.278 329.055 503 329.055 497.556C329.055 492.333 324.889 488.111 319.611 488.056Z" fill="#F2F2F2"/>
<path d="M419 428C413.333 427.667 408.555 432.056 408.333 437.778C408.111 443.444 412.5 448.167 418.167 448.389C423.778 448.611 428.611 444.111 428.667 438.444C428.778 432.833 424.833 428.333 419 428Z" fill="#F2F2F2"/>
<path d="M438.111 574.778C437.056 574.889 436.278 575.833 436.278 576.889C436.333 577.889 437.056 578.778 437.944 578.778C439 578.778 440.444 577.333 440.333 576.389C440.278 575.444 439.167 574.667 438.111 574.778Z" fill="#F2F2F2"/>
<path d="M398.833 573.056C396.833 573 394.945 574.778 394.889 576.722C394.833 578.667 396.611 580.556 398.611 580.667C400.556 580.778 402.445 579 402.5 576.944C402.556 574.944 400.889 573.111 398.833 573.056Z" fill="#F2F2F2"/>
<path d="M438.333 531.889C435.278 531.889 433 534.222 433.056 537.333C433.111 540.333 435.222 542.5 438.222 542.556C441.333 542.611 443.667 540.389 443.667 537.333C443.667 534.222 441.389 531.889 438.333 531.889Z" fill="#F2F2F2"/>
<path d="M438.444 490.167C434.167 490.111 430.778 493.5 430.889 497.778C431 501.944 434.278 505.111 438.444 505.111C442.611 505.111 445.833 501.833 445.889 497.667C445.833 493.5 442.611 490.222 438.444 490.167Z" fill="#F2F2F2"/>
<path d="M398.667 530.556C395.056 530.611 392.111 533.667 392.111 537.278C392.111 540.944 395.056 543.833 398.778 543.778C402.445 543.722 405.389 540.778 405.389 537.167C405.334 533.611 402.222 530.556 398.667 530.556Z" fill="#F2F2F2"/>
<path d="M398.722 489.056C394.056 489.056 390.278 492.778 390.167 497.444C390.111 502.278 393.944 506.167 398.722 506.167C403.444 506.167 407.389 502.167 407.278 497.444C407.222 492.833 403.389 489.056 398.722 489.056Z" fill="#F2F2F2"/>
<path d="M398.611 447.944C393 448 388.611 452.444 388.667 458.111C388.722 463.667 393.278 468.111 398.778 468.111C403.167 468.111 408.778 464.5 408.667 457.889C408.667 452.222 404.278 447.889 398.611 447.944Z" fill="#F2F2F2"/>
<path d="M418.667 552.278C415.944 552.222 413.833 554.222 413.722 556.889C413.667 559.556 415.722 561.722 418.389 561.778C421.056 561.833 423.222 559.833 423.278 557.111C423.389 554.5 421.333 552.333 418.667 552.278Z" fill="#F2F2F2"/>
<path d="M418.611 510.222C414.667 510.167 411.333 513.5 411.333 517.444C411.333 521.278 414.389 524.5 418.278 524.667C422.278 524.833 425.611 521.667 425.722 517.667C425.778 513.611 422.556 510.222 418.611 510.222Z" fill="#F2F2F2"/>
<path d="M359.278 488.444C354.111 488.389 349.945 492.444 349.889 497.556C349.833 502.667 354 506.833 359.111 506.833C364.222 506.833 368.333 502.667 368.333 497.556C368.278 492.556 364.278 488.5 359.278 488.444Z" fill="#F2F2F2"/>
<path d="M220.667 593.444C219.278 593.333 218 594.444 217.889 595.889C217.778 597.222 219 598.611 220.333 598.667C221.611 598.722 222.944 597.389 222.944 596.056C223 594.778 221.944 593.556 220.667 593.444Z" fill="#F2F2F2"/>
<path d="M240.333 487.778C235.111 487.778 231.111 491.722 231.056 496.944C231.056 502.167 235.056 506.222 240.222 506.222C245.333 506.222 249.5 502.111 249.5 497C249.556 491.833 245.556 487.778 240.333 487.778Z" fill="#F2F2F2"/>
<path d="M319.611 529.556C315.389 529.5 311.944 532.611 311.833 537.056C311.722 541.056 314.5 544.889 319.611 544.889C323.722 544.889 327.167 541.944 327.278 537.222C327.278 533.056 323.833 529.611 319.611 529.556Z" fill="#F2F2F2"/>
<path d="M220.611 467.389C215.389 467.278 210.778 471.667 210.778 476.944C210.722 482.167 214.722 486.889 220.555 486.889C225.889 486.889 230.222 482.5 230.278 477.222C230.278 471.944 225.889 467.5 220.611 467.389Z" fill="#F2F2F2"/>
<path d="M240.222 571.444C237.5 571.444 235.445 573.5 235.5 576.278C235.5 579 237.611 581.111 240.333 581.056C242.945 581.056 245.111 578.833 245.111 576.167C245.056 573.5 243 571.444 240.222 571.444Z" fill="#F2F2F2"/>
<path d="M220.5 508.722C215.944 508.667 212.333 512.389 212.389 516.944C212.5 521.444 216.055 524.833 220.555 524.778C225.055 524.722 228.5 521.222 228.5 516.722C228.5 512.278 225 508.722 220.5 508.722Z" fill="#F2F2F2"/>
<path d="M180.945 468.278C176.056 468.222 172.111 472.056 172 476.944C171.889 482 175.889 486.056 180.889 486C185.722 486 189.722 482 189.722 477.167C189.778 472.333 185.778 468.333 180.945 468.278Z" fill="#F2F2F2"/>
<path d="M200.667 447.278C195.111 447.278 190.611 451.778 190.611 457.333C190.611 462.889 195.111 467.333 200.778 467.278C206.278 467.222 210.611 462.889 210.667 457.444C210.722 451.833 206.222 447.278 200.667 447.278Z" fill="#F2F2F2"/>
<path d="M200.833 572.389C198.889 572.278 196.944 574.111 196.889 576.111C196.833 578.222 198.555 579.944 200.667 579.944C202.778 579.944 204.5 578.222 204.444 576.111C204.389 574.222 202.722 572.5 200.833 572.389Z" fill="#F2F2F2"/>
<path d="M200.611 529.944C197.111 530 194.167 532.889 194.056 536.389C193.944 540.056 196.889 543.111 200.556 543.167C204.278 543.222 207.222 540.278 207.222 536.611C207.222 532.889 204.222 529.889 200.611 529.944Z" fill="#F2F2F2"/>
<path d="M200.778 488.445C196 488.445 192.056 492.278 192.056 497C192.056 501.556 195.945 505.5 200.5 505.556C205.167 505.667 209.222 501.667 209.222 496.945C209 491.278 204.5 488.389 200.778 488.445Z" fill="#F2F2F2"/>
<path d="M220.778 550.5C217.5 550.333 214.611 553 214.556 556.333C214.5 559.556 217.056 562.167 220.278 562.278C223.556 562.333 226.167 559.944 226.278 556.667C226.444 553.389 224 550.667 220.778 550.5Z" fill="#F2F2F2"/>
<path d="M280.111 487.444C274.222 487.278 270.389 491.778 270.333 496.889C270.278 502.278 274.556 506.556 280 506.5C285.278 506.444 289.444 502.333 289.5 497.056C289.556 492.722 286.444 487.611 280.111 487.444Z" fill="#F2F2F2"/>
<path d="M299.778 592.5C297.778 592.444 296.222 594.056 296.278 596.111C296.333 598.056 297.722 599.444 299.667 599.5C301.722 599.5 303.278 598 303.222 595.944C303.111 594.056 301.611 592.556 299.778 592.5Z" fill="#F2F2F2"/>
<path d="M299.722 549.778C296 549.778 293.111 552.556 293.055 556.333C293 560.056 295.889 563.056 299.5 563.111C303.167 563.222 306.389 560 306.389 556.333C306.389 552.722 303.389 549.778 299.722 549.778Z" fill="#F2F2F2"/>
<path d="M299.722 508.056C295.278 507.833 291.056 511.611 290.944 516.611C290.889 521.556 294.722 525.5 299.667 525.5C304.5 525.5 308.278 521.722 308.444 516.944C308.611 512.5 304.833 507.889 299.722 508.056Z" fill="#F2F2F2"/>
<path d="M319.611 571.611C316.778 571.556 314.333 573.889 314.278 576.722C314.222 579.556 316.5 582 319.389 582.056C322.222 582.111 324.667 579.778 324.778 576.945C324.833 574.222 322.445 571.722 319.611 571.611Z" fill="#F2F2F2"/>
<path d="M260 508.167C255.222 508.222 251.389 512.056 251.444 516.889C251.5 521.556 255.278 525.333 259.944 525.389C264.778 525.445 268.611 521.611 268.667 516.833C268.667 512 264.833 508.111 260 508.167Z" fill="#F2F2F2"/>
<path d="M260 549.945C256.5 550 253.556 552.945 253.556 556.389C253.556 559.944 256.778 563 260.278 562.889C263.722 562.778 266.667 559.667 266.556 556.278C266.5 552.778 263.5 549.889 260 549.945Z" fill="#F2F2F2"/>
<path d="M280 528.778C275.667 528.722 272.222 532.056 272.111 536.611C272 540.778 275.611 544.278 279.778 544.333C284.056 544.389 287.5 541.056 287.611 536.833C287.722 532.611 284.667 528.833 280 528.778Z" fill="#F2F2F2"/>
<path d="M259.833 592.778C258.055 592.944 256.778 594.444 256.889 596.167C257 597.889 258.5 599.333 260.167 599.278C261.833 599.222 263.333 597.667 263.333 596C263.333 594.222 261.611 592.667 259.833 592.778Z" fill="#F2F2F2"/>
<path d="M279.944 570.945C277 570.889 274.722 573.111 274.667 576.111C274.611 579.167 277 581.611 280 581.556C282.833 581.5 285.111 579.111 285.111 576.222C285.111 573.222 282.889 570.945 279.944 570.945Z" fill="#F2F2F2"/>
<path d="M259.944 466.889C254.333 466.944 249.722 471.667 249.778 477.278C249.889 482.889 254.556 487.556 260.167 487.389C266 487.278 270.278 482.722 270.278 477C270.333 471.333 265.556 466.778 259.944 466.889Z" fill="#F2F2F2"/>
<path d="M497.778 513.778C495.778 513.778 494.167 515.333 494.111 517.278C494.056 519.333 495.778 521.111 497.889 521C499.889 520.944 501.444 519.333 501.389 517.333C501.389 515.389 499.833 513.833 497.778 513.778Z" fill="#F2F2F2"/>
<path d="M538 272.333C534 272.333 530.833 275.444 530.722 279.5C530.611 283.722 533.722 286.944 537.944 287C542.167 287.056 545.389 283.833 545.389 279.722C545.389 275.556 542.111 272.278 538 272.333Z" fill="#F2F2F2"/>
<path d="M537.444 311.889C533.278 311.833 530.056 315.056 530 319.278C530 323.5 533.167 326.722 537.333 326.722C541.444 326.722 544.778 323.444 544.778 319.333C544.833 315.222 541.556 311.944 537.444 311.889Z" fill="#F2F2F2"/>
<path d="M557.222 373.111C554.111 373.111 551.555 375.611 551.5 378.722C551.444 381.778 554.055 384.389 557.111 384.444C560 384.333 562.722 382.389 562.778 378.833C562.833 375.611 560.389 373.111 557.222 373.111Z" fill="#F2F2F2"/>
<path d="M557.445 455.333C555.889 455.222 554.5 456.389 554.5 457.944C554.445 459.444 555.5 460.556 557 460.667C558.556 460.778 559.945 459.611 560 458.056C560 456.722 558.834 455.444 557.445 455.333Z" fill="#F2F2F2"/>
<path d="M517.666 330.722C512.5 330.833 509.167 334.889 509.167 339.111C509.167 343.722 513 347.611 517.611 347.556C522.055 347.556 525.833 343.833 525.944 339.333C526.055 334.722 522.278 330.778 517.666 330.722Z" fill="#F2F2F2"/>
<path d="M557.222 413.833C554.889 413.833 552.778 415.833 552.611 418.167C552.5 420.611 554.667 422.889 557.111 422.889C559.5 422.944 561.778 420.611 561.722 418.222C561.667 416 559.5 413.833 557.222 413.833Z" fill="#F2F2F2"/>
<path d="M517.722 290.944C513 290.778 509.056 294.667 509 299.5C509 304.111 512.889 307.889 517.5 307.944C522.167 307.944 526 304.222 526.056 299.556C525.944 295.333 523.056 291.111 517.722 290.944Z" fill="#F2F2F2"/>
<path d="M518.333 251.611C513.389 251.611 510.111 255.222 510 259.722C509.889 264.278 513.556 268 518.111 268.111C522.667 268.167 526.389 264.5 526.5 260C526.556 255.444 522.889 251.611 518.333 251.611Z" fill="#F2F2F2"/>
<path d="M537.722 474.5C535.778 474.333 534.222 475.611 534.056 477.5C533.889 479.444 535.222 480.944 537.167 481.056C539.056 481.167 540.444 480 540.667 478.222C540.889 476.278 539.611 474.667 537.722 474.5Z" fill="#F2F2F2"/>
<path d="M537.5 432.833C534.556 432.722 532.111 435.111 532.111 438.167C532.111 441.111 534.278 443.389 537.222 443.444C540.111 443.5 542.5 441.333 542.611 438.444C542.778 435.5 540.5 432.944 537.5 432.833Z" fill="#F2F2F2"/>
<path d="M537.444 392.111C533.944 392.056 530.944 395 530.944 398.5C530.944 402 533.833 405 537.333 405C540.833 405 543.833 402.056 543.889 398.611C543.944 395.222 540.889 392.111 537.444 392.111Z" fill="#F2F2F2"/>
<path d="M537.389 351.722C533.444 351.722 530.222 355 530.278 359.056C530.333 363.111 533.611 366.278 537.611 366.167C541.444 366.056 544.611 362.833 544.666 359.056C544.611 355.056 541.278 351.722 537.389 351.722Z" fill="#F2F2F2"/>
<path d="M577.778 274.944C575.333 274.889 573.111 276.944 572.944 279.389C572.778 282 574.889 284.278 577.555 284.389C580.166 284.444 582.222 282.556 582.333 280C582.444 277.222 580.444 275 577.778 274.944Z" fill="#F2F2F2"/>
<path d="M594.889 377.944C594.5 379 594.889 380.056 595.889 380.611C596.5 380.944 597.333 380.611 597.389 380C597.5 379.056 597.555 378.111 597.667 377C595.778 376.833 595.222 377.056 594.889 377.944Z" fill="#F2F2F2"/>
<path d="M597.055 336.389C595.5 336.222 594.167 337.389 594.111 339C594.056 340.5 595.055 341.667 596.5 341.833C598.055 342 599.389 340.833 599.444 339.222C599.556 337.833 598.444 336.5 597.055 336.389Z" fill="#F2F2F2"/>
<path d="M557.222 333C553.778 332.944 551.111 335.5 551.056 338.889C550.944 342.444 553.611 345.222 557.111 345.278C560.611 345.333 563.333 342.556 563.278 339.056C563.278 335.667 560.667 333.056 557.222 333Z" fill="#F2F2F2"/>
<path d="M577.111 314.556C574.389 314.5 572.278 316.5 572.222 319.167C572.167 321.833 574.222 324 576.889 324.056C579.556 324.111 581.722 322.056 581.778 319.389C581.833 316.722 579.778 314.611 577.111 314.556Z" fill="#F2F2F2"/>
<path d="M596.722 296.611C595.222 296.667 593.945 297.889 593.889 299.444C593.833 301.167 595.111 302.444 596.833 302.389C598.556 302.333 599.778 301.056 599.611 299.333C599.556 297.778 598.222 296.556 596.722 296.611Z" fill="#F2F2F2"/>
<path d="M557.666 253.944C554.389 254 551.889 256.611 551.889 259.833C551.889 263.222 554.555 265.944 557.889 265.944C561.111 265.944 563.889 263.111 563.889 259.833C563.833 256.444 561.055 253.833 557.666 253.944Z" fill="#F2F2F2"/>
<path d="M557.445 293.167C553.945 293 550.889 295.889 550.833 299.444C550.833 302.833 553.611 305.722 557.056 305.778C560.445 305.833 563.389 303.056 563.5 299.667C563.611 296.278 560.889 293.389 557.445 293.167Z" fill="#F2F2F2"/>
<path d="M576.889 395.222C575 395.278 573.556 396.833 573.667 398.722C573.778 400.556 575.111 401.833 576.944 401.833C578.944 401.833 580.333 400.444 580.333 398.5C580.333 396.611 578.833 395.167 576.889 395.222Z" fill="#F2F2F2"/>
<path d="M577.055 354.5C574.722 354.445 572.611 356.5 572.611 358.889C572.555 361.278 574.555 363.333 576.944 363.389C579.278 363.445 581.389 361.389 581.444 359C581.444 356.722 579.389 354.556 577.055 354.5Z" fill="#F2F2F2"/>
<path d="M575.944 437C575.722 437.056 575.389 437.278 575.278 437.5C575.166 437.722 575.166 438.056 575.222 438.389C575.222 438.556 575.444 438.722 575.611 438.778C575.778 438.778 576 438.667 576.111 438.5C576.278 438.278 576.333 437.944 576.444 437.611C576.222 437.389 576.055 437 575.944 437Z" fill="#F2F2F2"/>
<path d="M497.833 430.778C493.611 430.778 490.389 433.889 490.333 438.111C490.278 442.333 493.444 445.556 497.667 445.556C501.889 445.611 505.111 442.444 505.111 438.222C505.167 434 502 430.778 497.833 430.778Z" fill="#F2F2F2"/>
<path d="M478 491.667C474.611 491.667 471.944 494.278 471.944 497.667C471.944 500.944 474.778 503.722 478.055 503.667C481.222 503.611 483.833 501 483.944 497.778C484 494.389 481.389 491.667 478 491.667Z" fill="#F2F2F2"/>
<path d="M478.444 450.389C474.167 450.167 470.667 453.222 470.333 457.5C470 461.611 473.222 465.333 477.5 465.556C481.167 465.778 485.222 463.389 485.556 458.389C485.833 454.222 482.667 450.611 478.444 450.389Z" fill="#F2F2F2"/>
<path d="M477.833 409.556C473 409.611 469.222 413.389 469.167 418.222C469.111 423.278 472.889 427.111 477.889 427.111C482.889 427.111 486.722 423.278 486.722 418.278C486.722 413.389 482.778 409.5 477.833 409.556Z" fill="#F2F2F2"/>
<path d="M477.833 533.944C476 534 474.666 535.333 474.611 537.167C474.555 539.111 476 540.556 477.944 540.611C479.889 540.611 481.389 539.167 481.333 537.222C481.333 535.333 479.778 533.889 477.833 533.944Z" fill="#F2F2F2"/>
<path d="M477.944 369.111C472.722 369.111 468.278 373.167 468.389 378.833C468.444 384.667 472.833 388.222 477.833 388.333C483.167 388.5 487.555 384.111 487.611 378.778C487.611 373.444 483.278 369.111 477.944 369.111Z" fill="#F2F2F2"/>
<path d="M458.111 388.611C451.889 388.611 448.222 393.778 448.111 398.444C448.055 403.944 452.666 408.611 458.111 408.556C463.666 408.556 468.111 403.944 468.055 398.389C468.055 392.889 463.666 388.611 458.111 388.611Z" fill="#F2F2F2"/>
<path d="M458.222 554.167C456.5 554.111 455.278 555.389 455.278 557.111C455.333 558.722 456.444 559.889 458.056 559.889C459.722 559.944 461.056 558.611 461.056 556.944C461 555.444 459.722 554.222 458.222 554.167Z" fill="#F2F2F2"/>
<path d="M478 329.167C472.333 329.167 467.944 333.444 467.944 339.111C467.944 344.722 472.333 349.167 477.944 349.167C483.611 349.167 487.944 344.833 488 339.167C488 333.444 483.722 329.167 478 329.167Z" fill="#F2F2F2"/>
<path d="M458.167 511.556C455.055 511.5 452.333 514.222 452.278 517.389C452.222 520.5 454.944 523.278 458.055 523.333C461.222 523.333 463.889 520.722 463.889 517.5C463.944 514.222 461.389 511.611 458.167 511.556Z" fill="#F2F2F2"/>
<path d="M458.222 429.167C453.278 429.111 449.167 433.222 449.167 438.222C449.167 443.111 453.055 447.056 457.944 447.222C462.889 447.333 467.111 443.333 467.167 438.389C467.222 433.333 463.166 429.222 458.222 429.167Z" fill="#F2F2F2"/>
<path d="M517.611 370.833C513.278 370.833 509.5 374.611 509.611 378.944C509.722 383.167 513.389 386.667 517.667 386.611C522 386.556 525.389 383.056 525.389 378.667C525.389 374.333 521.889 370.833 517.611 370.833Z" fill="#F2F2F2"/>
<path d="M458.222 470.167C454.056 470.111 450.556 473.5 450.5 477.722C450.445 481.889 453.889 485.389 458.056 485.444C462.222 485.5 465.722 482.111 465.778 477.889C465.834 473.667 462.445 470.222 458.222 470.167Z" fill="#F2F2F2"/>
<path d="M517.667 494C515.667 493.944 514.056 495.5 513.944 497.444C513.833 499.5 515.611 501.278 517.667 501.278C519.611 501.222 521.222 499.611 521.222 497.667C521.222 495.667 519.667 494.056 517.667 494Z" fill="#F2F2F2"/>
<path d="M498.5 270.444C493.389 270.389 489.222 274.5 489.167 279.611C489.111 284.778 493.167 288.889 498.333 288.944C503.555 289 507.611 285.056 507.611 279.833C507.667 274.556 503.667 270.444 498.5 270.444Z" fill="#F2F2F2"/>
<path d="M517.444 411.278C513.611 411.333 510.444 414.611 510.556 418.444C510.611 422.333 513.778 425.5 517.667 425.389C521.5 425.333 524.667 422.056 524.611 418.222C524.556 414.444 521.278 411.222 517.444 411.278Z" fill="#F2F2F2"/>
<path d="M477.889 289.278C472.222 289.333 467.667 293.944 467.722 299.611C467.833 305.111 472.333 309.667 477.833 309.722C483.5 309.778 488.111 305.167 488.111 299.5C488.167 293.778 483.611 289.278 477.889 289.278Z" fill="#F2F2F2"/>
<path d="M497.833 309.944C492.555 309.889 488.389 314.111 488.444 319.389C488.5 324.556 492.555 328.611 497.667 328.667C502.944 328.722 507.056 324.556 507.056 319.222C507 314.056 502.944 310 497.833 309.944Z" fill="#F2F2F2"/>
<path d="M517.722 452.278C514.5 452.167 511.833 454.778 511.833 458C511.833 461.111 514.611 463.833 517.722 463.722C520.778 463.611 523.278 461.056 523.278 457.944C523.278 454.889 520.834 452.389 517.722 452.278Z" fill="#F2F2F2"/>
<path d="M180.889 509.556C176.944 509.556 173.611 512.889 173.667 516.833C173.722 520.667 176.833 523.889 180.722 523.944C184.667 524.056 188.056 520.833 188.056 516.833C188.056 512.889 184.833 509.556 180.889 509.556Z" fill="#F2F2F2"/>
<path d="M497.833 471.889C494.389 471.833 491.722 474.444 491.722 477.778C491.722 481 494.556 483.833 497.778 483.833C500.944 483.833 503.611 481.222 503.667 478C503.778 474.556 501.278 471.944 497.833 471.889Z" fill="#F2F2F2"/>
<path d="M497.667 349.778C492.722 349.833 488.667 354 488.611 358.944C488.611 364.056 492.889 368.167 498 368.056C503 367.944 506.945 363.778 506.889 358.778C506.778 353.778 502.556 349.722 497.667 349.778Z" fill="#F2F2F2"/>
<path d="M438.444 408.278C432.833 408.222 428.278 412.611 428.167 418.111C428.055 423.833 432.5 428.444 438.222 428.5C443.944 428.556 448.5 424 448.5 418.333C448.444 412.778 444.055 408.333 438.444 408.278Z" fill="#F2F2F2"/>
<path d="M497.778 390.111C493.167 390.111 489.278 394 489.278 398.556C489.278 403.111 493.167 407 497.722 407.056C502.278 407.111 506.167 403.167 506.222 398.611C506.222 394 502.333 390.111 497.778 390.111Z" fill="#F2F2F2"/>
<path d="M122.167 269.111C128.167 269.111 132.055 264.111 132.055 259.222C132.111 253.833 127.555 249.333 122.167 249.278C116.555 249.222 112.055 253.778 112.167 259.333C112.222 264.833 116.667 269.167 122.167 269.111Z" fill="#F2F2F2"/>
<path d="M82.4444 227.222C86.6666 227.222 90.111 223.778 90.111 219.611C90.111 215.444 86.6666 211.944 82.4999 211.944C78.3333 211.944 74.8333 215.389 74.8333 219.556C74.8333 223.778 78.2221 227.222 82.4444 227.222Z" fill="#F2F2F2"/>
<path d="M82.5 103.444C84 103.444 85.2777 102.056 85.2222 100.611C85.1666 99.0556 83.8888 97.8889 82.3333 98C80.9444 98.0556 79.7777 99.2778 79.7777 100.667C79.6666 102.111 81.0555 103.5 82.5 103.444Z" fill="#F2F2F2"/>
<path d="M102.389 328C107.5 327.944 111.556 323.833 111.556 318.667C111.556 313.444 107.556 309.389 102.389 309.389C97.2223 309.389 93.1112 313.389 93.0556 318.556C92.9445 323.778 97.1667 328 102.389 328Z" fill="#F2F2F2"/>
<path d="M82.4999 145.444C85.2221 145.444 87.5555 143.167 87.611 140.5C87.7221 137.667 85.3888 135.278 82.4999 135.278C79.6666 135.278 77.2221 137.722 77.3332 140.5C77.4443 143.167 79.7777 145.444 82.4999 145.444Z" fill="#F2F2F2"/>
<path d="M82.5555 186.611C86.1666 186.556 89.1666 183.556 89.111 179.889C89.111 176.222 86.111 173.333 82.4444 173.333C78.7777 173.333 75.8333 176.333 75.8333 180C75.8888 183.611 78.9444 186.667 82.5555 186.611Z" fill="#F2F2F2"/>
<path d="M102.278 288.222C107.444 288.222 111.5 284.222 111.444 279C111.444 273.778 107.444 269.778 102.222 269.778C97.0556 269.778 93 273.889 93 279C93 284.167 97.1111 288.222 102.278 288.222Z" fill="#F2F2F2"/>
<path d="M102.111 83.4444C103.5 83.5556 104.833 82.3889 104.889 81C104.944 79.6111 103.778 78.3889 102.333 78.3333C101 78.2778 99.7222 79.5556 99.7222 80.8889C99.7777 82.1667 100.889 83.3333 102.111 83.4444Z" fill="#F2F2F2"/>
<path d="M23.111 243.444C25.3888 243.389 27.111 241.722 27.1666 239.444C27.2221 237.111 25.3332 235.222 22.9999 235.278C20.7777 235.333 18.9999 237.056 18.9443 239.278C18.8888 241.667 20.7221 243.5 23.111 243.444Z" fill="#F2F2F2"/>
<path d="M102.5 207.833C107 207.722 110.445 204.167 110.389 199.667C110.333 195.056 106.667 191.5 102.056 191.611C97.5556 191.722 94.1667 195.278 94.1667 199.778C94.2223 204.444 97.8334 207.944 102.5 207.833Z" fill="#F2F2F2"/>
<path d="M102.167 167.111C106 167.167 109.222 164.056 109.278 160.167C109.333 156.444 106.333 153.333 102.611 153.167C98.7222 153 95.4444 156.056 95.3888 159.889C95.2222 163.778 98.2777 167.056 102.167 167.111Z" fill="#F2F2F2"/>
<path d="M102.389 248.278C107.222 248.222 111.167 244.222 111.167 239.389C111.167 234.5 107.222 230.556 102.333 230.556C97.4445 230.556 93.4445 234.389 93.389 239.278C93.3334 244.278 97.389 248.333 102.389 248.278Z" fill="#F2F2F2"/>
<path d="M62.7221 123.167C64.0554 123.111 65.2777 121.833 65.2221 120.444C65.1665 119 63.8888 117.833 62.4999 118C61.2777 118.111 60.1665 119.278 60.111 120.556C60.0554 121.778 61.4443 123.167 62.7221 123.167Z" fill="#F2F2F2"/>
<path d="M42.6667 183.833C44.8889 183.944 46.7778 182.222 46.7778 180C46.8333 177.833 44.9444 175.944 42.7778 176C40.7222 176.056 39.0556 177.778 39 179.889C39 182 40.5556 183.722 42.6667 183.833Z" fill="#F2F2F2"/>
<path d="M42.4445 224.833C45.5556 225.056 48 222.889 48.1111 219.778C48.2222 216.778 46.1111 214.444 43.1667 214.333C40.2222 214.167 37.8333 216.333 37.6667 219.222C37.4445 222.167 39.5556 224.611 42.4445 224.833Z" fill="#F2F2F2"/>
<path d="M23.0556 202.667C24.7778 202.667 26 201.389 25.9445 199.667C25.8889 198.056 24.7223 196.944 23.1112 196.889C21.4445 196.889 20.1112 198.278 20.1667 199.889C20.2223 201.389 21.5 202.667 23.0556 202.667Z" fill="#F2F2F2"/>
<path d="M42.9443 265.222C46.2777 265.222 48.8888 262.444 48.8332 259.111C48.7777 255.778 45.9999 253.167 42.6666 253.278C39.4443 253.389 36.9999 255.944 36.9443 259.222C36.9443 262.611 39.5554 265.222 42.9443 265.222Z" fill="#F2F2F2"/>
<path d="M44.1666 141.667C44.8332 141 44.9443 140.222 44.4999 139.389C43.9999 138.5 42.9999 138.389 42.4999 139.222C42.0554 139.889 41.7777 140.667 41.4443 141.333C42.8888 142.389 43.3888 142.389 44.1666 141.667Z" fill="#F2F2F2"/>
<path d="M122.056 309C127.611 309 132.167 304.556 132.222 299C132.278 293.333 127.722 288.667 122.056 288.667C116.333 288.667 111.833 293.222 111.889 298.944C112 304.5 116.5 308.944 122.056 309Z" fill="#F2F2F2"/>
<path d="M62.7222 286.333C66.8889 286.333 70.1111 283.056 70.0556 278.889C70 274.722 66.7222 271.556 62.5556 271.667C58.5 271.722 55.4445 274.833 55.3889 278.944C55.3333 283.167 58.5 286.389 62.7222 286.333Z" fill="#F2F2F2"/>
<path d="M62.6111 164.833C65.1666 164.833 67.2777 162.833 67.3888 160.278C67.4444 157.667 65.5 155.611 62.8888 155.5C60.2222 155.389 58.1111 157.278 58 159.833C57.8333 162.556 59.9444 164.778 62.6111 164.833Z" fill="#F2F2F2"/>
<path d="M82.3888 267.389C86.9999 267.444 90.611 263.833 90.6666 259.222C90.6666 254.667 86.9999 251 82.4444 251C77.9999 251.056 74.4444 254.556 74.3888 259.056C74.2777 263.722 77.7777 267.333 82.3888 267.389Z" fill="#F2F2F2"/>
<path d="M62.611 205.778C65.9999 205.833 68.7221 203.222 68.7777 199.944C68.8332 196.556 66.0554 193.667 62.6665 193.722C59.2777 193.722 56.7221 196.333 56.7221 199.778C56.6665 203.167 59.1665 205.778 62.611 205.778Z" fill="#F2F2F2"/>
<path d="M62.7777 246.278C66.4999 246.222 69.5555 243.167 69.5555 239.389C69.5555 235.611 66.5555 232.556 62.7777 232.5C59.0555 232.444 55.8888 235.444 55.7777 239.222C55.6666 243.056 58.8888 246.333 62.7777 246.278Z" fill="#F2F2F2"/>
<path d="M102.389 125.833C105.278 125.778 107.5 123.444 107.5 120.556C107.5 117.5 105.111 115.111 102.111 115.222C99.2777 115.278 96.9443 117.667 96.9443 120.5C96.9443 123.444 99.4443 125.889 102.389 125.833Z" fill="#F2F2F2"/>
<path d="M181.5 169.944C186.889 169.944 191.389 165.389 191.278 160C191.056 154.722 187.167 150.444 181.5 150.333C176.111 150.222 171.611 154.944 171.667 160.278C171.778 165.611 176.222 169.944 181.5 169.944Z" fill="#F2F2F2"/>
<path d="M161.222 65.5556C163.5 65.8333 165.833 64 166.167 61.6667C166.556 59.2778 164.611 56.8333 162.111 56.6111C159.611 56.3889 157.333 58.2778 157.111 60.7778C156.944 63 158.889 65.2778 161.222 65.5556Z" fill="#F2F2F2"/>
<path d="M161.5 189.778C166.944 189.889 171.444 185.5 171.556 180.056C171.556 175.222 168.056 170.222 161.778 170.111C156.389 170.056 152.056 174.167 151.944 179.611C151.778 185.167 156.056 189.667 161.5 189.778Z" fill="#F2F2F2"/>
<path d="M181.333 128.889C185.889 129.167 189.833 125.222 189.944 120.611C190 116 186.167 112.111 181.611 112.056C177.055 112.056 173.055 115.944 173.167 120.5C173.222 124.944 176.222 128.611 181.333 128.889Z" fill="#F2F2F2"/>
<path d="M161.833 107.611C165.611 107.556 168.611 104.5 168.556 100.667C168.556 96.8333 165.556 93.8333 161.722 93.8333C157.889 93.7778 154.833 96.7778 154.778 100.611C154.778 104.5 157.889 107.667 161.833 107.611Z" fill="#F2F2F2"/>
<path d="M161.611 148.889C166.278 148.944 170.111 145.222 170.222 140.556C170.333 135.833 166.445 131.778 161.722 131.722C157 131.667 153.056 135.667 153.056 140.389C153.167 145.056 156.945 148.833 161.611 148.889Z" fill="#F2F2F2"/>
<path d="M181.667 87.3889C185.111 87.2778 188.056 84.2778 188 80.8333C187.944 77.3333 185 74.4444 181.5 74.4444C178 74.4444 175.056 77.3889 175 80.8333C174.944 84.2778 178.167 87.4444 181.667 87.3889Z" fill="#F2F2F2"/>
<path d="M201.222 66.8889C204.389 66.9445 207.056 64.3333 207.111 61.1667C207.167 58.0556 204.5 55.2778 201.389 55.2222C198.278 55.1667 195.556 57.8333 195.5 61C195.5 64.2222 198 66.8333 201.222 66.8889Z" fill="#F2F2F2"/>
<path d="M201.278 108.667C205.722 108.667 209.389 105 209.278 100.611C209.167 95.8889 205.278 92.7222 201.333 92.7778C196.945 92.7778 193.5 96.1667 193.389 100.556C193.278 105 196.833 108.667 201.278 108.667Z" fill="#F2F2F2"/>
<path d="M181.611 44.8889C183.611 44.8333 185.167 43.2222 185.167 41.2222C185.167 39.2778 183.556 37.6111 181.556 37.6111C179.5 37.5556 177.778 39.3333 177.889 41.4444C178 43.4444 179.611 44.9444 181.611 44.8889Z" fill="#F2F2F2"/>
<path d="M201.444 149.889C206.667 149.833 210.889 145.556 210.889 140.333C210.889 134.944 206.5 130.667 201.167 130.778C195.778 130.889 191.611 135.222 191.778 140.611C191.889 145.833 196.222 149.944 201.444 149.889Z" fill="#F2F2F2"/>
<path d="M121.944 228.889C127.222 228.944 131.444 224.833 131.444 219.556C131.444 214.389 127.389 210.278 122.222 210.222C116.944 210.167 112.722 214.333 112.722 219.556C112.722 224.667 116.833 228.833 121.944 228.889Z" fill="#F2F2F2"/>
<path d="M121.833 147.444C125.722 147.611 129 144.556 129.167 140.722C129.389 136.667 126.222 133.333 122.222 133.278C118.333 133.222 115.111 136.278 115 140.167C114.889 144 117.944 147.278 121.833 147.444Z" fill="#F2F2F2"/>
<path d="M122.222 106.056C125.111 105.944 127.333 103.611 127.278 100.667C127.278 97.6667 125 95.4444 122.055 95.4444C119.111 95.4444 116.833 97.6667 116.833 100.611C116.833 103.667 119.278 106.111 122.222 106.056Z" fill="#F2F2F2"/>
<path d="M201.333 24C202.722 24 203.944 22.7222 203.833 21.3333C203.778 19.8889 202.5 18.7778 201.111 18.8333C199.889 18.9444 198.778 20.0556 198.722 21.3333C198.722 22.7222 200 24 201.333 24Z" fill="#F2F2F2"/>
<path d="M122.222 63.4445C123.5 63.3333 124.556 62.1111 124.445 60.8889C124.333 59.6111 123.056 58.6111 121.833 58.7222C120.722 58.8333 119.722 59.9445 119.778 61.1111C119.778 62.3333 121 63.5 122.222 63.4445Z" fill="#F2F2F2"/>
<path d="M122.055 188.444C126.611 188.5 130.5 184.611 130.555 180C130.611 175.389 126.778 171.556 122.167 171.5C117.555 171.5 113.667 175.333 113.667 179.889C113.611 184.444 117.5 188.444 122.055 188.444Z" fill="#F2F2F2"/>
<path d="M141.945 209.444C147.222 209.278 151.611 205.444 151.556 199.722C151.5 194.056 147.278 190.056 141.833 190.111C135.722 190.111 132.167 194.944 132.222 199.778C132.278 205.111 136.611 209.5 141.945 209.444Z" fill="#F2F2F2"/>
<path d="M142.056 85.8889C144.778 85.7778 147 83.4444 146.889 80.7222C146.833 77.9444 144.5 75.7778 141.778 75.8889C139.056 75.9444 136.778 78.3333 136.889 81C136.944 83.7222 139.333 86 142.056 85.8889Z" fill="#F2F2F2"/>
<path d="M141.944 127.667C145.778 127.611 148.944 124.444 149 120.611C149.056 116.611 145.833 113.333 141.833 113.333C138 113.333 134.833 116.5 134.778 120.389C134.722 124.333 138.056 127.722 141.944 127.667Z" fill="#F2F2F2"/>
<path d="M142.944 42.4444C142.833 42.4444 142.778 42.3889 142.667 42.3889C142.667 42.5 142.611 42.5556 142.611 42.6667C142.722 42.6667 142.778 42.7222 142.889 42.7222C142.944 42.6667 142.944 42.5 142.944 42.4444Z" fill="#F2F2F2"/>
<path d="M141.833 168.833C146.556 168.833 150.5 164.889 150.5 160.167C150.5 155.389 146.611 151.556 141.778 151.611C137 151.667 133.167 155.556 133.278 160.389C133.389 164.944 137.278 168.778 141.833 168.833Z" fill="#F2F2F2"/>
<path d="M142 249.833C148.722 249.722 152.333 244.333 152.389 239.222C152.278 233.5 147.389 228.833 141.722 228.944C136.611 229.056 131.555 233.056 131.555 239.389C131.5 245.167 135.833 249.944 142 249.833Z" fill="#F2F2F2"/>
<path d="M121.556 409C116.667 408.944 112.778 412.667 112.667 417.444C112.556 422.389 116.389 426.389 121.333 426.5C126.389 426.611 130.278 422.278 130.222 417.722C130.222 412.889 126.333 409.056 121.556 409Z" fill="#F2F2F2"/>
<path d="M121.333 348.444C127 348.5 131.444 344.111 131.444 338.5C131.444 333 127.167 328.611 121.722 328.444C116.167 328.333 111.5 332.722 111.444 338.278C111.333 343.889 115.722 348.389 121.333 348.444Z" fill="#F2F2F2"/>
<path d="M121.278 533.278C119.445 533.333 118.167 534.611 118.111 536.5C118.056 538.5 119.445 539.889 121.389 539.889C123.333 539.889 124.722 538.444 124.722 536.5C124.722 534.611 123.278 533.222 121.278 533.278Z" fill="#F2F2F2"/>
<path d="M23.1666 283.722C25.7222 283.667 27.7222 281.667 27.7222 279.056C27.7222 276.444 25.8333 274.389 23.2777 274.278C20.611 274.167 18.3888 276.278 18.3333 278.944C18.2777 281.556 20.5555 283.778 23.1666 283.722Z" fill="#F2F2F2"/>
<path d="M180.833 551.667C178.111 551.667 176.056 553.722 176.056 556.444C176.056 559.056 178.222 561.222 180.889 561.222C183.556 561.222 185.667 559.056 185.667 556.389C185.611 553.667 183.556 551.667 180.833 551.667Z" fill="#F2F2F2"/>
<path d="M121.389 449.778C117.278 449.778 113.945 453.111 113.833 457.222C113.722 461.444 117.167 464.944 121.445 464.944C125.556 464.944 128.889 461.667 129 457.5C129.056 453.222 125.667 449.722 121.389 449.778Z" fill="#F2F2F2"/>
<path d="M101.722 513.111C99.6667 513.056 97.8889 514.833 98.0001 516.944C98.1112 518.944 99.7223 520.444 101.722 520.389C103.722 520.333 105.278 518.778 105.278 516.778C105.278 514.833 103.667 513.167 101.722 513.111Z" fill="#F2F2F2"/>
<path d="M101.722 471.278C98.4445 471.222 95.5556 474.056 95.6667 477.278C95.7778 480.444 98.4445 483 101.667 483C104.944 483 107.5 480.444 107.5 477.167C107.5 473.944 104.944 471.278 101.722 471.278Z" fill="#F2F2F2"/>
<path d="M121.389 368.5C116.111 368.5 111.945 372.667 111.833 377.944C111.722 383.278 116.056 387.667 121.389 387.667C126.611 387.667 130.889 383.444 130.944 378.222C131.056 372.833 126.778 368.5 121.389 368.5Z" fill="#F2F2F2"/>
<path d="M82.5556 290.333C78.0556 290.278 74 294.167 74 298.722C74 303 77 307.111 82.3889 307.222C87.6111 307.278 90.7778 303.222 90.9444 298.889C91 294.333 87.1111 290.389 82.5556 290.333Z" fill="#F2F2F2"/>
<path d="M101.556 389.5C96.9444 389.556 93.1111 393.444 93.1666 398C93.2777 402.611 97.2222 406.389 101.778 406.278C106.222 406.167 109.944 402.389 110 397.944C110.056 393.333 106.167 389.5 101.556 389.5Z" fill="#F2F2F2"/>
<path d="M101.611 349.278C96.6112 349.278 92.5556 353.389 92.6112 358.389C92.6667 363.333 96.8334 367.444 101.778 367.333C106.611 367.222 110.611 363.222 110.611 358.389C110.667 353.389 106.556 349.222 101.611 349.278Z" fill="#F2F2F2"/>
<path d="M101.889 430.167C97.6666 430.056 94.3333 433.167 94.2777 437.278C94.1666 441.5 97.3333 444.778 101.5 444.833C105.722 444.889 108.944 441.722 108.944 437.556C108.944 433.444 105.944 430.278 101.889 430.167Z" fill="#F2F2F2"/>
<path d="M160.945 489.5C156.722 489.556 153.556 492.778 153.556 497C153.556 501.222 156.778 504.444 160.945 504.444C165.167 504.5 168.389 501.333 168.5 497.111C168.611 492.778 165.278 489.444 160.945 489.5Z" fill="#F2F2F2"/>
<path d="M161 574.056C159.889 574.056 159.056 574.889 158.889 576C158.778 577 159.833 577.889 161.222 578.056C162.111 578.167 163.056 577.333 163.056 576.333C163.167 575.111 162.222 574.056 161 574.056Z" fill="#F2F2F2"/>
<path d="M160.889 531.222C157.945 531.278 155.722 533.556 155.667 536.5C155.611 539.556 157.945 541.889 161 541.889C164.056 541.889 166.445 539.556 166.389 536.5C166.389 533.5 163.945 531.167 160.889 531.222Z" fill="#F2F2F2"/>
<path d="M180.722 447.667C186.389 447.778 191 443.167 191 437.5C190.944 431.889 186.556 427.444 180.944 427.389C175.222 427.333 170.667 431.833 170.722 437.556C170.722 443.167 175.111 447.556 180.722 447.667Z" fill="#F2F2F2"/>
<path d="M160.833 448.333C155.833 448.444 151.833 452.667 152.055 457.611C152.222 462.5 156.278 466.389 161.111 466.333C166.055 466.278 170.167 462.111 170.111 457.222C170 452.222 165.833 448.222 160.833 448.333Z" fill="#F2F2F2"/>
<path d="M141.278 428.556C136.389 428.556 132.444 432.444 132.333 437.333C132.222 442.333 136.278 446.444 141.278 446.444C146.111 446.444 150.111 442.5 150.222 437.667C150.278 432.667 146.278 428.611 141.278 428.556Z" fill="#F2F2F2"/>
<path d="M161.056 427.833C166.833 427.833 171.222 423.333 171.167 417.556C171.056 411.222 165.944 407.556 161.056 407.556C155.556 407.556 151 412.056 150.889 417.611C150.833 423.278 155.333 427.833 161.056 427.833Z" fill="#F2F2F2"/>
<path d="M141.167 510.889C138.056 510.889 135.389 513.722 135.389 516.833C135.389 520 138.111 522.667 141.278 522.667C144.5 522.611 147.056 520 147 516.778C147 513.5 144.333 510.833 141.167 510.889Z" fill="#F2F2F2"/>
<path d="M141.445 553.556C139.667 553.444 138.389 554.611 138.389 556.333C138.333 557.944 139.445 559.167 141 559.278C142.611 559.389 144.056 558.111 144.111 556.444C144.167 554.944 143 553.667 141.445 553.556Z" fill="#F2F2F2"/>
<path d="M141.167 469.5C137 469.556 133.555 473.111 133.611 477.278C133.667 481.5 137.167 484.833 141.389 484.778C145.611 484.722 148.944 481.278 148.889 477.056C148.833 472.833 145.333 469.444 141.167 469.5Z" fill="#F2F2F2"/>
<path d="M141.167 407.833C146.611 407.889 151.111 403.5 151.167 398.056C151.222 391.722 145.944 387.889 141.167 387.944C135.833 387.944 131.278 392.556 131.333 397.944C131.333 402.556 134.944 407.722 141.167 407.833Z" fill="#F2F2F2"/>
<path d="M121.667 491C118.333 490.889 115.556 493.556 115.445 496.833C115.389 500 117.889 502.722 121.056 502.944C124.389 503.167 127.222 500.667 127.333 497.278C127.5 493.833 125 491.111 121.667 491Z" fill="#F2F2F2"/>
<path d="M22.2222 394.611C20.3888 394.667 19.0555 396.056 19.0555 397.833C18.9999 399.778 20.4444 401.222 22.4444 401.167C24.3888 401.167 25.8333 399.722 25.7777 397.778C25.7222 395.889 24.2222 394.5 22.2222 394.611Z" fill="#F2F2F2"/>
<path d="M23.0555 313.889C20.3333 313.889 18.2222 315.944 18.2222 318.611C18.2222 321.222 20.4444 323.389 23.0555 323.389C25.7222 323.389 27.8333 321.278 27.8333 318.611C27.8333 315.889 25.7777 313.889 23.0555 313.889Z" fill="#F2F2F2"/>
<path d="M22.5555 354C20.0555 353.944 18.1111 355.833 18.1111 358.333C18.1666 360.667 20 362.5 22.3889 362.5C24.7778 362.5 26.6111 360.722 26.6666 358.333C26.6666 356 24.8889 354.056 22.5555 354Z" fill="#F2F2F2"/>
<path d="M42.1111 372.556C39.1111 372.611 36.7222 375.056 36.6667 378.056C36.6111 381.167 39.1667 383.667 42.3333 383.611C45.3333 383.556 47.7222 381.167 47.7222 378.111C47.7778 375 45.2222 372.444 42.1111 372.556Z" fill="#F2F2F2"/>
<path d="M42.1665 454.833C40.7221 454.833 39.611 456.056 39.6665 457.444C39.7221 458.833 41.0554 460 42.3888 459.889C43.611 459.778 44.7221 458.611 44.7777 457.389C44.8332 456 43.611 454.778 42.1665 454.833Z" fill="#F2F2F2"/>
<path d="M42.2778 413.167C39.7778 413.111 37.6667 415.278 37.7223 417.778C37.7778 420.111 39.7778 422.222 42.1112 422.278C44.5 422.333 46.7223 420.056 46.6667 417.611C46.6667 415.278 44.6112 413.222 42.2778 413.167Z" fill="#F2F2F2"/>
<path d="M3.00004 261.722C4.33337 261.889 5.72226 260.667 5.83337 259.333C5.88892 258 4.6667 256.667 3.33337 256.611C2.00004 256.556 0.666703 257.833 0.666703 259.167C0.611147 260.333 1.77781 261.611 3.00004 261.722Z" fill="#F2F2F2"/>
<path d="M23.5557 436.611C23.5557 436.722 23.5557 436.778 23.5557 436.889C23.7223 437 23.8334 437.111 24.0001 437.222C24.0001 437.056 24.1112 436.889 24.0557 436.833C23.9446 436.667 23.7223 436.667 23.5557 436.611Z" fill="#F2F2F2"/>
<path d="M2.61106 376.389C2.61106 377.111 2.5555 377.833 2.66661 378.5C2.72217 378.833 3.11106 379.167 3.38883 379.333C3.72217 379.5 4.38883 378.944 4.44439 378.444C4.49995 377.333 4.22217 376.944 2.61106 376.389Z" fill="#F2F2F2"/>
<path d="M2.66667 335.833C1.27778 335.778 0 337.056 0 338.444C0 339.778 1.33333 341.056 2.66667 341C4 340.944 5.33333 339.5 5.16667 338.278C5.05556 337 3.83333 335.889 2.66667 335.833Z" fill="#F2F2F2"/>
<path d="M3.33325 295.944C1.66659 295.889 0.333252 297.222 0.333252 298.889C0.388808 300.444 1.61103 301.667 3.11103 301.667C4.66659 301.722 5.94436 300.556 6.05547 299.056C6.2777 297.389 5.05547 296 3.33325 295.944Z" fill="#F2F2F2"/>
<path d="M81.6667 410.722C77.8889 410.833 74.8889 413.833 74.8889 417.611C74.8333 421.5 78 424.667 81.8889 424.667C85.7222 424.667 88.8889 421.444 88.8333 417.611C88.7778 413.778 85.5 410.611 81.6667 410.722Z" fill="#F2F2F2"/>
<path d="M81.9445 451.667C78.8889 451.611 76.2778 454.111 76.1667 457.222C76.1111 460.278 78.6111 462.889 81.7222 462.944C84.8333 463 87.3889 460.556 87.4445 457.389C87.5 454.333 85.0556 451.722 81.9445 451.667Z" fill="#F2F2F2"/>
<path d="M81.889 493.5C79.9445 493.444 78.4445 494.833 78.3334 496.722C78.2223 498.778 79.7223 500.389 81.7223 500.444C83.7223 500.5 85.3334 498.889 85.2779 496.889C85.2779 494.944 83.8334 493.556 81.889 493.5Z" fill="#F2F2F2"/>
<path d="M42.1111 332.444C38.7777 332.5 36.1111 335.222 36.1666 338.5C36.1666 341.944 39.0555 344.667 42.5 344.556C45.8333 344.444 48.3333 341.778 48.2222 338.333C48.1111 334.889 45.5 332.389 42.1111 332.444Z" fill="#F2F2F2"/>
<path d="M81.889 370.167C77.7779 370.167 74.1112 373.333 74.0001 378C73.889 382.278 77.4445 385.833 81.7779 385.889C86.1112 385.944 89.7223 382.444 89.6668 378.167C89.6112 373.056 85.6112 370.222 81.889 370.167Z" fill="#F2F2F2"/>
<path d="M63.0001 311.278C58.7779 311.111 55.4445 314.167 55.2779 318.333C55.1112 322.5 58.2223 325.889 62.3334 326.056C66.4445 326.222 69.889 323.056 70.0557 318.944C70.2779 314.778 67.2223 311.444 63.0001 311.278Z" fill="#F2F2F2"/>
<path d="M81.6668 330.111C77.1668 330.222 73.4446 334.056 73.5001 338.556C73.5557 343.111 77.3335 346.889 81.8335 346.778C87.0001 346.667 90.2223 342.778 90.1668 338.222C90.1112 333.667 86.1668 330 81.6668 330.111Z" fill="#F2F2F2"/>
<path d="M62.1111 351.222C58.2778 351.167 55.0555 354.333 55 358.222C54.9444 362.056 58.1666 365.333 62 365.389C65.8333 365.444 69.0555 362.222 69.1111 358.389C69.1111 354.444 65.9444 351.278 62.1111 351.222Z" fill="#F2F2F2"/>
<path d="M62.0554 473.944C60.2777 473.944 58.8332 475.333 58.7777 477.111C58.7221 478.889 60.1666 480.333 61.9443 480.333C63.7221 480.333 65.1666 478.944 65.1666 477.167C65.2221 475.389 63.8332 473.944 62.0554 473.944Z" fill="#F2F2F2"/>
<path d="M42.9444 292.611C39.5555 292.556 36.7222 295.333 36.6666 298.778C36.6111 302.222 39.3333 305 42.7777 305.056C46.2222 305.111 49.0555 302.333 49.0555 298.944C49.1111 295.5 46.3333 292.611 42.9444 292.611Z" fill="#F2F2F2"/>
<path d="M62.0555 432.278C59.2221 432.222 56.8332 434.556 56.8332 437.444C56.7777 440.333 59.111 442.722 61.9444 442.778C64.7777 442.833 67.1666 440.444 67.2221 437.611C67.2221 434.722 64.9444 432.333 62.0555 432.278Z" fill="#F2F2F2"/>
<path d="M61.7778 391.5C58.3333 391.611 55.4445 394.722 55.6111 398.167C55.7778 401.5 58.7222 404.278 62.0556 404.222C65.5556 404.167 68.5 401.111 68.3889 397.667C68.3333 394.278 65.2778 391.389 61.7778 391.5Z" fill="#F2F2F2"/>
</svg>
