<svg width="820" height="848" viewBox="0 0 820 848" fill="none" xmlns="http://www.w3.org/2000/svg">
<g filter="url(#filter0_d_455_71)">
<path d="M150.102 779.854C141.613 785.305 130.221 794.75 128.462 806.979C126.939 817.569 122.978 814.6 117.011 810.126C111.792 806.214 105.039 801.151 97.0402 803.001C89.4148 804.765 86.8777 811.505 84.5281 817.747C81.5946 825.541 78.953 832.559 67.0662 828.148C49.0728 821.472 32.0928 830.69 11.8838 841.661C8.04856 843.743 4.09703 845.888 0.000209427 848H204.583C175.478 835.892 154.267 810.343 150.102 779.854Z" fill="#E9ECEF"/>
<path d="M150.102 779.854C141.613 785.305 130.221 794.75 128.462 806.979C126.939 817.569 122.978 814.6 117.011 810.126C111.792 806.214 105.039 801.151 97.0402 803.001C89.4148 804.765 86.8777 811.505 84.5281 817.747C81.5946 825.541 78.953 832.559 67.0662 828.148C49.0728 821.472 32.0928 830.69 11.8838 841.661C8.04856 843.743 4.09703 845.888 0.000209427 848H204.583C175.478 835.892 154.267 810.343 150.102 779.854Z" fill="#E9ECEF"/>
<path d="M203.837 847.998C212.326 842.547 223.717 833.102 225.476 820.873C226.999 810.283 230.96 813.252 236.928 817.726C242.146 821.638 248.899 826.701 256.898 824.851C264.524 823.087 267.061 816.347 269.41 810.105C272.344 802.311 274.985 795.293 286.872 799.704C304.866 806.38 321.846 797.162 342.055 786.191C345.89 784.109 349.841 781.964 353.938 779.852L149.355 779.852C178.46 791.96 199.672 817.509 203.837 847.998Z" fill="#E9ECEF"/>
<path d="M203.837 847.998C212.326 842.547 223.717 833.102 225.476 820.873C226.999 810.283 230.96 813.252 236.928 817.726C242.146 821.638 248.899 826.701 256.898 824.851C264.524 823.087 267.061 816.347 269.41 810.105C272.344 802.311 274.985 795.293 286.872 799.704C304.866 806.38 321.846 797.162 342.055 786.191C345.89 784.109 349.841 781.964 353.938 779.852L149.355 779.852C178.46 791.96 199.672 817.509 203.837 847.998Z" fill="#E9ECEF"/>
<path d="M299.456 710.491C290.967 715.942 279.576 725.387 277.818 737.616C276.294 748.206 272.333 745.237 266.366 740.763C261.147 736.851 254.394 731.788 246.395 733.638C238.77 735.401 236.233 742.142 233.883 748.384C230.95 756.178 228.308 763.196 216.421 758.785C198.428 752.109 181.448 761.327 161.239 772.298C157.404 774.38 153.452 776.525 149.355 778.637H353.938C324.832 766.528 303.621 740.98 299.456 710.491Z" fill="#E9ECEF"/>
<path d="M299.456 710.491C290.967 715.942 279.576 725.387 277.818 737.616C276.294 748.206 272.333 745.237 266.366 740.763C261.147 736.851 254.394 731.788 246.395 733.638C238.77 735.401 236.233 742.142 233.883 748.384C230.95 756.178 228.308 763.196 216.421 758.785C198.428 752.109 181.448 761.327 161.239 772.298C157.404 774.38 153.452 776.525 149.355 778.637H353.938C324.832 766.528 303.621 740.98 299.456 710.491Z" fill="#E9ECEF"/>
<path d="M203.837 710.491C212.326 715.942 223.717 725.387 225.476 737.616C226.999 748.206 230.96 745.237 236.928 740.763C242.146 736.851 248.899 731.788 256.898 733.638C264.524 735.401 267.061 742.142 269.41 748.384C272.344 756.178 274.985 763.195 286.872 758.785C304.866 752.109 321.846 761.327 342.055 772.298C345.89 774.38 349.841 776.525 353.938 778.637H149.355C178.461 766.528 199.672 740.979 203.837 710.491Z" fill="#E9ECEF"/>
<path d="M203.837 710.491C212.326 715.942 223.717 725.387 225.476 737.616C226.999 748.206 230.96 745.237 236.928 740.763C242.146 736.851 248.899 731.788 256.898 733.638C264.524 735.401 267.061 742.142 269.41 748.384C272.344 756.178 274.985 763.195 286.872 758.785C304.866 752.109 321.846 761.327 342.055 772.298C345.89 774.38 349.841 776.525 353.938 778.637H149.355C178.461 766.528 199.672 740.979 203.837 710.491Z" fill="#E9ECEF"/>
<path d="M299.456 847.998C290.967 842.547 279.576 833.102 277.817 820.873C276.294 810.283 272.333 813.252 266.366 817.726C261.147 821.638 254.394 826.701 246.395 824.851C238.77 823.087 236.233 816.347 233.883 810.105C230.95 802.311 228.308 795.293 216.421 799.704C198.428 806.38 181.448 797.162 161.239 786.191C157.404 784.109 153.452 781.964 149.355 779.852L353.938 779.852C324.833 791.961 303.621 817.509 299.456 847.998Z" fill="#E9ECEF"/>
<path d="M299.456 847.998C290.967 842.547 279.576 833.102 277.817 820.873C276.294 810.283 272.333 813.252 266.366 817.726C261.147 821.638 254.394 826.701 246.395 824.851C238.77 823.087 236.233 816.347 233.883 810.105C230.95 802.311 228.308 795.293 216.421 799.704C198.428 806.38 181.448 797.162 161.239 786.191C157.404 784.109 153.452 781.964 149.355 779.852L353.938 779.852C324.833 791.961 303.621 817.509 299.456 847.998Z" fill="#E9ECEF"/>
<path d="M353.192 779.854C361.681 785.305 373.072 794.75 374.831 806.979C376.354 817.569 380.315 814.6 386.283 810.126C391.501 806.214 398.254 801.151 406.253 803.001C413.879 804.765 416.416 811.505 418.765 817.747C421.699 825.541 424.34 832.559 436.227 828.148C454.221 821.472 471.201 830.69 491.41 841.661C495.245 843.743 499.196 845.888 503.293 848H298.709C327.815 835.892 349.027 810.343 353.192 779.854Z" fill="#E9ECEF"/>
<path d="M353.192 779.854C361.681 785.305 373.072 794.75 374.831 806.979C376.354 817.569 380.315 814.6 386.283 810.126C391.501 806.214 398.254 801.151 406.253 803.001C413.879 804.765 416.416 811.505 418.765 817.747C421.699 825.541 424.34 832.559 436.227 828.148C454.221 821.472 471.201 830.69 491.41 841.661C495.245 843.743 499.196 845.888 503.293 848H298.709C327.815 835.892 349.027 810.343 353.192 779.854Z" fill="#E9ECEF"/>
<path d="M150.102 502.402C141.613 507.853 130.221 517.298 128.462 529.527C126.939 540.117 122.978 537.148 117.011 532.674C111.792 528.762 105.039 523.699 97.0402 525.549C89.4147 527.313 86.8777 534.053 84.528 540.295C81.5945 548.089 78.953 555.107 67.0661 550.696C49.0728 544.02 32.0928 553.238 11.8837 564.209C8.04851 566.291 4.09698 568.436 0.000161478 570.548H204.583C175.478 558.439 154.267 532.891 150.102 502.402Z" fill="#E9ECEF"/>
<path d="M150.102 502.402C141.613 507.853 130.221 517.298 128.462 529.527C126.939 540.117 122.978 537.148 117.011 532.674C111.792 528.762 105.039 523.699 97.0402 525.549C89.4147 527.313 86.8777 534.053 84.528 540.295C81.5945 548.089 78.953 555.107 67.0661 550.696C49.0728 544.02 32.0928 553.238 11.8837 564.209C8.04851 566.291 4.09698 568.436 0.000161478 570.548H204.583C175.478 558.439 154.267 532.891 150.102 502.402Z" fill="#E9ECEF"/>
<path d="M299.456 709.272C290.967 703.821 279.576 694.376 277.818 682.147C276.294 671.557 272.333 674.526 266.366 679C261.147 682.912 254.394 687.975 246.395 686.125C238.77 684.361 236.233 677.621 233.883 671.379C230.95 663.585 228.308 656.567 216.421 660.978C198.428 667.654 181.448 658.436 161.239 647.465C157.404 645.383 153.452 643.238 149.355 641.126H353.938C324.832 653.235 303.621 678.783 299.456 709.272Z" fill="#E9ECEF"/>
<path d="M299.456 709.272C290.967 703.821 279.576 694.376 277.818 682.147C276.294 671.557 272.333 674.526 266.366 679C261.147 682.912 254.394 687.975 246.395 686.125C238.77 684.361 236.233 677.621 233.883 671.379C230.95 663.585 228.308 656.567 216.421 660.978C198.428 667.654 181.448 658.436 161.239 647.465C157.404 645.383 153.452 643.238 149.355 641.126H353.938C324.832 653.235 303.621 678.783 299.456 709.272Z" fill="#E9ECEF"/>
<path d="M203.837 571.765C212.326 577.216 223.717 586.661 225.476 598.89C226.999 609.48 230.96 606.511 236.928 602.037C242.146 598.125 248.899 593.062 256.898 594.912C264.524 596.676 267.061 603.416 269.41 609.658C272.344 617.452 274.985 624.47 286.872 620.059C304.866 613.383 321.846 622.601 342.055 633.572C345.89 635.654 349.841 637.799 353.938 639.911H149.355C178.46 627.803 199.672 602.254 203.837 571.765Z" fill="#E9ECEF"/>
<path d="M203.837 571.765C212.326 577.216 223.717 586.661 225.476 598.89C226.999 609.48 230.96 606.511 236.928 602.037C242.146 598.125 248.899 593.062 256.898 594.912C264.524 596.676 267.061 603.416 269.41 609.658C272.344 617.452 274.985 624.47 286.872 620.059C304.866 613.383 321.846 622.601 342.055 633.572C345.89 635.654 349.841 637.799 353.938 639.911H149.355C178.46 627.803 199.672 602.254 203.837 571.765Z" fill="#E9ECEF"/>
<path d="M150.102 639.909C141.613 634.458 130.221 625.013 128.462 612.784C126.939 602.194 122.978 605.163 117.011 609.637C111.792 613.549 105.039 618.612 97.0402 616.762C89.4147 614.998 86.8777 608.258 84.528 602.016C81.5945 594.222 78.953 587.204 67.0661 591.615C49.0728 598.291 32.0928 589.073 11.8837 578.102C8.04851 576.02 4.09698 573.875 0.000161421 571.763H204.583C175.478 583.872 154.267 609.421 150.102 639.909Z" fill="#E9ECEF"/>
<path d="M150.102 639.909C141.613 634.458 130.221 625.013 128.462 612.784C126.939 602.194 122.978 605.163 117.011 609.637C111.792 613.549 105.039 618.612 97.0402 616.762C89.4147 614.998 86.8777 608.258 84.528 602.016C81.5945 594.222 78.953 587.204 67.0661 591.615C49.0728 598.291 32.0928 589.073 11.8837 578.102C8.04851 576.02 4.09698 573.875 0.000161421 571.763H204.583C175.478 583.872 154.267 609.421 150.102 639.909Z" fill="#E9ECEF"/>
<path d="M353.192 639.909C361.681 634.458 373.072 625.013 374.831 612.784C376.354 602.193 380.315 605.163 386.283 609.637C391.501 613.549 398.254 618.611 406.253 616.762C413.879 614.998 416.416 608.258 418.765 602.015C421.699 594.222 424.34 587.204 436.227 591.614C454.221 598.291 471.201 589.073 491.41 578.102C495.245 576.02 499.196 573.875 503.293 571.763H298.709C327.815 583.871 349.027 609.42 353.192 639.909Z" fill="#E9ECEF"/>
<path d="M353.192 639.909C361.681 634.458 373.072 625.013 374.831 612.784C376.354 602.193 380.315 605.163 386.283 609.637C391.501 613.549 398.254 618.611 406.253 616.762C413.879 614.998 416.416 608.258 418.765 602.015C421.699 594.222 424.34 587.204 436.227 591.614C454.221 598.291 471.201 589.073 491.41 578.102C495.245 576.02 499.196 573.875 503.293 571.763H298.709C327.815 583.871 349.027 609.42 353.192 639.909Z" fill="#E9ECEF"/>
<path d="M299.456 571.765C290.967 577.216 279.576 586.661 277.818 598.89C276.294 609.48 272.333 606.511 266.366 602.037C261.147 598.125 254.394 593.062 246.395 594.912C238.77 596.676 236.233 603.416 233.883 609.658C230.95 617.452 228.308 624.47 216.421 620.059C198.428 613.383 181.448 622.601 161.239 633.572C157.404 635.654 153.452 637.799 149.355 639.911H353.938C324.833 627.803 303.621 602.254 299.456 571.765Z" fill="#E9ECEF"/>
<path d="M299.456 571.765C290.967 577.216 279.576 586.661 277.818 598.89C276.294 609.48 272.333 606.511 266.366 602.037C261.147 598.125 254.394 593.062 246.395 594.912C238.77 596.676 236.233 603.416 233.883 609.658C230.95 617.452 228.308 624.47 216.421 620.059C198.428 613.383 181.448 622.601 161.239 633.572C157.404 635.654 153.452 637.799 149.355 639.911H353.938C324.833 627.803 303.621 602.254 299.456 571.765Z" fill="#E9ECEF"/>
<path d="M203.837 709.271C212.326 703.821 223.717 694.375 225.476 682.147C226.999 671.556 230.96 674.526 236.928 678.999C242.146 682.912 248.899 687.974 256.898 686.124C264.524 684.361 267.061 677.621 269.41 671.378C272.344 663.585 274.985 656.567 286.872 660.977C304.866 667.654 321.846 658.436 342.055 647.465C345.89 645.383 349.841 643.238 353.938 641.126H149.355C178.461 653.234 199.672 678.783 203.837 709.271Z" fill="#E9ECEF"/>
<path d="M203.837 709.271C212.326 703.821 223.717 694.375 225.476 682.147C226.999 671.556 230.96 674.526 236.928 678.999C242.146 682.912 248.899 687.974 256.898 686.124C264.524 684.361 267.061 677.621 269.41 671.378C272.344 663.585 274.985 656.567 286.872 660.977C304.866 667.654 321.846 658.436 342.055 647.465C345.89 645.383 349.841 643.238 353.938 641.126H149.355C178.461 653.234 199.672 678.783 203.837 709.271Z" fill="#E9ECEF"/>
<path d="M353.192 502.402C361.68 507.853 373.072 517.298 374.831 529.527C376.354 540.117 380.315 537.148 386.282 532.674C391.501 528.762 398.254 523.699 406.253 525.549C413.878 527.313 416.415 534.053 418.765 540.295C421.699 548.089 424.34 555.107 436.227 550.696C454.22 544.02 471.2 553.238 491.409 564.209C495.245 566.291 499.196 568.436 503.293 570.548H298.71C327.815 558.439 349.027 532.891 353.192 502.402Z" fill="#E9ECEF"/>
<path d="M353.192 502.402C361.68 507.853 373.072 517.298 374.831 529.527C376.354 540.117 380.315 537.148 386.282 532.674C391.501 528.762 398.254 523.699 406.253 525.549C413.878 527.313 416.415 534.053 418.765 540.295C421.699 548.089 424.34 555.107 436.227 550.696C454.22 544.02 471.2 553.238 491.409 564.209C495.245 566.291 499.196 568.436 503.293 570.548H298.71C327.815 558.439 349.027 532.891 353.192 502.402Z" fill="#E9ECEF"/>
<path d="M448.808 779.854C440.319 785.304 428.928 794.75 427.169 806.979C425.646 817.569 421.685 814.6 415.717 810.126C410.499 806.214 403.746 801.151 395.747 803.001C388.121 804.764 385.584 811.505 383.234 817.747C380.301 825.541 377.659 832.558 365.773 828.148C347.779 821.472 330.799 830.69 310.59 841.661C306.755 843.743 302.803 845.888 298.707 848H503.29C474.184 835.891 452.973 810.342 448.808 779.854Z" fill="#E9ECEF"/>
<path d="M502.545 847.998C511.034 842.548 522.426 833.102 524.185 820.873C525.708 810.283 529.669 813.252 535.636 817.726C540.855 821.638 547.608 826.701 555.607 824.851C563.232 823.088 565.769 816.347 568.119 810.105C571.052 802.311 573.694 795.294 585.581 799.704C603.574 806.38 620.554 797.162 640.763 786.191C644.599 784.109 648.55 781.964 652.647 779.852H448.064C477.169 791.961 498.38 817.51 502.545 847.998Z" fill="#E9ECEF"/>
<path d="M502.545 847.998C511.034 842.548 522.426 833.102 524.185 820.873C525.708 810.283 529.669 813.252 535.636 817.726C540.855 821.638 547.608 826.701 555.607 824.851C563.232 823.088 565.769 816.347 568.119 810.105C571.052 802.311 573.694 795.294 585.581 799.704C603.574 806.38 620.554 797.162 640.763 786.191C644.599 784.109 648.55 781.964 652.647 779.852H448.064C477.169 791.961 498.38 817.51 502.545 847.998Z" fill="#E9ECEF"/>
<path d="M598.163 710.491C589.674 715.942 578.283 725.387 576.524 737.616C575.001 748.206 571.04 745.237 565.072 740.763C559.854 736.851 553.101 731.788 545.102 733.638C537.476 735.401 534.939 742.142 532.59 748.384C529.656 756.178 527.015 763.195 515.128 758.785C497.134 752.109 480.154 761.327 459.945 772.298C456.11 774.38 452.159 776.525 448.062 778.637H652.645C623.54 766.528 602.328 740.979 598.163 710.491Z" fill="#E9ECEF"/>
<path d="M598.163 710.491C589.674 715.942 578.283 725.387 576.524 737.616C575.001 748.206 571.04 745.237 565.072 740.763C559.854 736.851 553.101 731.788 545.102 733.638C537.476 735.401 534.939 742.142 532.59 748.384C529.656 756.178 527.015 763.195 515.128 758.785C497.134 752.109 480.154 761.327 459.945 772.298C456.11 774.38 452.159 776.525 448.062 778.637H652.645C623.54 766.528 602.328 740.979 598.163 710.491Z" fill="#E9ECEF"/>
<path d="M502.545 710.491C511.034 715.942 522.426 725.387 524.185 737.616C525.708 748.206 529.669 745.237 535.636 740.763C540.855 736.851 547.608 731.788 555.607 733.638C563.232 735.401 565.769 742.142 568.119 748.384C571.053 756.178 573.694 763.196 585.581 758.785C603.574 752.109 620.554 761.327 640.763 772.298C644.599 774.38 648.55 776.525 652.647 778.637H448.064C477.169 766.528 498.38 740.979 502.545 710.491Z" fill="#E9ECEF"/>
<path d="M502.545 710.491C511.034 715.942 522.426 725.387 524.185 737.616C525.708 748.206 529.669 745.237 535.636 740.763C540.855 736.851 547.608 731.788 555.607 733.638C563.232 735.401 565.769 742.142 568.119 748.384C571.053 756.178 573.694 763.196 585.581 758.785C603.574 752.109 620.554 761.327 640.763 772.298C644.599 774.38 648.55 776.525 652.647 778.637H448.064C477.169 766.528 498.38 740.979 502.545 710.491Z" fill="#E9ECEF"/>
<path d="M598.163 847.998C589.674 842.547 578.283 833.102 576.524 820.873C575.001 810.283 571.04 813.252 565.072 817.726C559.854 821.638 553.101 826.701 545.102 824.851C537.476 823.087 534.939 816.347 532.59 810.105C529.656 802.311 527.015 795.293 515.128 799.704C497.134 806.38 480.154 797.162 459.945 786.191C456.11 784.109 452.159 781.964 448.062 779.852H652.645C623.54 791.96 602.328 817.509 598.163 847.998Z" fill="#E9ECEF"/>
<path d="M598.163 847.998C589.674 842.547 578.283 833.102 576.524 820.873C575.001 810.283 571.04 813.252 565.072 817.726C559.854 821.638 553.101 826.701 545.102 824.851C537.476 823.087 534.939 816.347 532.59 810.105C529.656 802.311 527.015 795.293 515.128 799.704C497.134 806.38 480.154 797.162 459.945 786.191C456.11 784.109 452.159 781.964 448.062 779.852H652.645C623.54 791.96 602.328 817.509 598.163 847.998Z" fill="#E9ECEF"/>
<path d="M651.899 779.854C660.387 785.305 671.779 794.75 673.538 806.979C675.061 817.569 679.022 814.6 684.989 810.126C690.208 806.214 696.961 801.151 704.96 803.001C712.585 804.765 715.122 811.505 717.472 817.747C720.406 825.541 723.047 832.559 734.934 828.148C752.927 821.472 769.907 830.69 790.116 841.661C793.952 843.743 797.903 845.888 802 848H597.417C626.522 835.892 647.734 810.343 651.899 779.854Z" fill="#E9ECEF"/>
<path d="M651.899 779.854C660.387 785.305 671.779 794.75 673.538 806.979C675.061 817.569 679.022 814.6 684.989 810.126C690.208 806.214 696.961 801.151 704.96 803.001C712.585 804.765 715.122 811.505 717.472 817.747C720.406 825.541 723.047 832.559 734.934 828.148C752.927 821.472 769.907 830.69 790.116 841.661C793.952 843.743 797.903 845.888 802 848H597.417C626.522 835.892 647.734 810.343 651.899 779.854Z" fill="#E9ECEF"/>
<path d="M448.808 502.402C440.319 507.853 428.928 517.298 427.169 529.527C425.646 540.117 421.685 537.148 415.717 532.674C410.499 528.762 403.746 523.699 395.747 525.549C388.121 527.313 385.584 534.053 383.234 540.295C380.301 548.089 377.659 555.107 365.773 550.696C347.779 544.02 330.799 553.238 310.59 564.209C306.755 566.291 302.803 568.436 298.707 570.548H503.29C474.185 558.44 452.973 532.891 448.808 502.402Z" fill="#E9ECEF"/>
<path d="M448.808 502.402C440.319 507.853 428.928 517.298 427.169 529.527C425.646 540.117 421.685 537.148 415.717 532.674C410.499 528.762 403.746 523.699 395.747 525.549C388.121 527.313 385.584 534.053 383.234 540.295C380.301 548.089 377.659 555.107 365.773 550.696C347.779 544.02 330.799 553.238 310.59 564.209C306.755 566.291 302.803 568.436 298.707 570.548H503.29C474.185 558.44 452.973 532.891 448.808 502.402Z" fill="#E9ECEF"/>
<path d="M598.163 709.271C589.674 703.821 578.283 694.375 576.524 682.147C575.001 671.556 571.04 674.526 565.072 678.999C559.854 682.912 553.101 687.974 545.102 686.124C537.476 684.361 534.939 677.621 532.59 671.378C529.656 663.585 527.015 656.567 515.128 660.977C497.134 667.654 480.154 658.436 459.945 647.465C456.11 645.383 452.159 643.237 448.062 641.126L652.646 641.126C623.54 653.234 602.328 678.783 598.163 709.271Z" fill="#E9ECEF"/>
<path d="M598.163 709.271C589.674 703.821 578.283 694.375 576.524 682.147C575.001 671.556 571.04 674.526 565.072 678.999C559.854 682.912 553.101 687.974 545.102 686.124C537.476 684.361 534.939 677.621 532.59 671.378C529.656 663.585 527.015 656.567 515.128 660.977C497.134 667.654 480.154 658.436 459.945 647.465C456.11 645.383 452.159 643.237 448.062 641.126L652.646 641.126C623.54 653.234 602.328 678.783 598.163 709.271Z" fill="#E9ECEF"/>
<path d="M502.545 571.765C511.034 577.216 522.426 586.661 524.185 598.89C525.708 609.48 529.669 606.511 535.636 602.037C540.855 598.125 547.608 593.062 555.607 594.912C563.232 596.676 565.769 603.416 568.119 609.658C571.052 617.452 573.694 624.47 585.581 620.059C603.574 613.383 620.554 622.601 640.763 633.572C644.599 635.654 648.55 637.799 652.647 639.911H448.064C477.169 627.802 498.381 602.253 502.545 571.765Z" fill="#E9ECEF"/>
<path d="M502.545 571.765C511.034 577.216 522.426 586.661 524.185 598.89C525.708 609.48 529.669 606.511 535.636 602.037C540.855 598.125 547.608 593.062 555.607 594.912C563.232 596.676 565.769 603.416 568.119 609.658C571.052 617.452 573.694 624.47 585.581 620.059C603.574 613.383 620.554 622.601 640.763 633.572C644.599 635.654 648.55 637.799 652.647 639.911H448.064C477.169 627.802 498.381 602.253 502.545 571.765Z" fill="#E9ECEF"/>
<path d="M448.808 639.909C440.319 634.458 428.928 625.013 427.169 612.784C425.646 602.194 421.685 605.163 415.717 609.637C410.499 613.549 403.746 618.612 395.747 616.762C388.121 614.998 385.584 608.258 383.234 602.016C380.301 594.222 377.659 587.204 365.773 591.615C347.779 598.291 330.799 589.073 310.59 578.102C306.755 576.02 302.803 573.875 298.707 571.763H503.29C474.184 583.872 452.973 609.42 448.808 639.909Z" fill="#E9ECEF"/>
<path d="M448.808 639.909C440.319 634.458 428.928 625.013 427.169 612.784C425.646 602.194 421.685 605.163 415.717 609.637C410.499 613.549 403.746 618.612 395.747 616.762C388.121 614.998 385.584 608.258 383.234 602.016C380.301 594.222 377.659 587.204 365.773 591.615C347.779 598.291 330.799 589.073 310.59 578.102C306.755 576.02 302.803 573.875 298.707 571.763H503.29C474.184 583.872 452.973 609.42 448.808 639.909Z" fill="#E9ECEF"/>
<path d="M651.899 639.909C660.387 634.458 671.779 625.013 673.538 612.784C675.061 602.194 679.022 605.163 684.989 609.637C690.208 613.549 696.961 618.612 704.96 616.762C712.585 614.998 715.122 608.258 717.472 602.016C720.406 594.222 723.047 587.204 734.934 591.615C752.927 598.291 769.907 589.073 790.116 578.102C793.952 576.02 797.903 573.875 802 571.763H597.417C626.522 583.872 647.734 609.421 651.899 639.909Z" fill="#E9ECEF"/>
<path d="M651.899 639.909C660.387 634.458 671.779 625.013 673.538 612.784C675.061 602.194 679.022 605.163 684.989 609.637C690.208 613.549 696.961 618.612 704.96 616.762C712.585 614.998 715.122 608.258 717.472 602.016C720.406 594.222 723.047 587.204 734.934 591.615C752.927 598.291 769.907 589.073 790.116 578.102C793.952 576.02 797.903 573.875 802 571.763H597.417C626.522 583.872 647.734 609.421 651.899 639.909Z" fill="#E9ECEF"/>
<path d="M598.163 571.765C589.674 577.216 578.283 586.661 576.524 598.89C575.001 609.48 571.04 606.511 565.072 602.037C559.854 598.125 553.101 593.062 545.102 594.912C537.476 596.676 534.939 603.416 532.59 609.658C529.656 617.452 527.015 624.47 515.128 620.059C497.134 613.383 480.154 622.601 459.945 633.572C456.11 635.654 452.159 637.799 448.062 639.911H652.645C623.54 627.803 602.328 602.254 598.163 571.765Z" fill="#E9ECEF"/>
<path d="M598.163 571.765C589.674 577.216 578.283 586.661 576.524 598.89C575.001 609.48 571.04 606.511 565.072 602.037C559.854 598.125 553.101 593.062 545.102 594.912C537.476 596.676 534.939 603.416 532.59 609.658C529.656 617.452 527.015 624.47 515.128 620.059C497.134 613.383 480.154 622.601 459.945 633.572C456.11 635.654 452.159 637.799 448.062 639.911H652.645C623.54 627.803 602.328 602.254 598.163 571.765Z" fill="#E9ECEF"/>
<path d="M502.545 709.272C511.034 703.821 522.426 694.376 524.185 682.147C525.708 671.557 529.669 674.526 535.636 679C540.855 682.912 547.608 687.975 555.607 686.125C563.232 684.361 565.769 677.621 568.119 671.379C571.052 663.585 573.694 656.567 585.581 660.978C603.574 667.654 620.554 658.436 640.763 647.465C644.599 645.383 648.55 643.238 652.647 641.126H448.064C477.169 653.234 498.38 678.783 502.545 709.272Z" fill="#E9ECEF"/>
<path d="M502.545 709.272C511.034 703.821 522.426 694.376 524.185 682.147C525.708 671.557 529.669 674.526 535.636 679C540.855 682.912 547.608 687.975 555.607 686.125C563.232 684.361 565.769 677.621 568.119 671.379C571.052 663.585 573.694 656.567 585.581 660.978C603.574 667.654 620.554 658.436 640.763 647.465C644.599 645.383 648.55 643.238 652.647 641.126H448.064C477.169 653.234 498.38 678.783 502.545 709.272Z" fill="#E9ECEF"/>
<path d="M651.899 502.402C660.387 507.853 671.779 517.298 673.538 529.527C675.061 540.117 679.022 537.148 684.989 532.674C690.208 528.762 696.961 523.699 704.96 525.549C712.585 527.313 715.122 534.053 717.472 540.295C720.406 548.089 723.047 555.107 734.934 550.696C752.927 544.02 769.907 553.238 790.116 564.209C793.952 566.291 797.903 568.436 802 570.548H597.417C626.522 558.439 647.734 532.891 651.899 502.402Z" fill="#E9ECEF"/>
<path d="M651.899 502.402C660.387 507.853 671.779 517.298 673.538 529.527C675.061 540.117 679.022 537.148 684.989 532.674C690.208 528.762 696.961 523.699 704.96 525.549C712.585 527.313 715.122 534.053 717.472 540.295C720.406 548.089 723.047 555.107 734.934 550.696C752.927 544.02 769.907 553.238 790.116 564.209C793.952 566.291 797.903 568.436 802 570.548H597.417C626.522 558.439 647.734 532.891 651.899 502.402Z" fill="#E9ECEF"/>
<path d="M651.898 86.1459C660.387 80.6952 671.779 71.2498 673.538 59.0209C675.061 48.4306 679.022 51.4001 684.989 55.8738C690.208 59.7861 696.961 64.8487 704.96 62.9988C712.585 61.2352 715.122 54.4951 717.472 48.2526C720.405 40.4591 723.047 33.4412 734.934 37.8517C752.927 44.5279 769.907 35.3099 790.116 24.3389C793.951 22.2569 797.903 20.1117 802 18L597.417 18C626.522 30.1084 647.733 55.6573 651.898 86.1459Z" fill="#E9ECEF"/>
<path d="M651.898 86.1459C660.387 80.6952 671.779 71.2498 673.538 59.0209C675.061 48.4306 679.022 51.4001 684.989 55.8738C690.208 59.7861 696.961 64.8487 704.96 62.9988C712.585 61.2352 715.122 54.4951 717.472 48.2526C720.405 40.4591 723.047 33.4412 734.934 37.8517C752.927 44.5279 769.907 35.3099 790.116 24.3389C793.951 22.2569 797.903 20.1117 802 18L597.417 18C626.522 30.1084 647.733 55.6573 651.898 86.1459Z" fill="#E9ECEF"/>
<path d="M598.163 18.0021C589.674 23.4529 578.283 32.8982 576.524 45.127C575.001 55.7173 571.04 52.7478 565.072 48.2741C559.854 44.3618 553.101 39.2992 545.102 41.1491C537.476 42.9126 534.939 49.6528 532.59 55.8953C529.656 63.6888 527.015 70.7067 515.128 66.2962C497.134 59.62 480.154 68.838 459.945 79.8089C456.11 81.891 452.159 84.0362 448.062 86.1478L652.645 86.1478C623.539 74.0396 602.328 48.4907 598.163 18.0021Z" fill="#E9ECEF"/>
<path d="M598.163 18.0021C589.674 23.4529 578.283 32.8982 576.524 45.127C575.001 55.7173 571.04 52.7478 565.072 48.2741C559.854 44.3618 553.101 39.2992 545.102 41.1491C537.476 42.9126 534.939 49.6528 532.59 55.8953C529.656 63.6888 527.015 70.7067 515.128 66.2962C497.134 59.62 480.154 68.838 459.945 79.8089C456.11 81.891 452.159 84.0362 448.062 86.1478L652.645 86.1478C623.539 74.0396 602.328 48.4907 598.163 18.0021Z" fill="#E9ECEF"/>
<path d="M502.544 155.509C511.033 150.058 522.424 140.613 524.182 128.384C525.706 117.794 529.667 120.763 535.634 125.237C540.853 129.149 547.606 134.212 555.605 132.362C563.23 130.598 565.767 123.858 568.117 117.616C571.05 109.822 573.692 102.804 585.579 107.215C603.572 113.891 620.552 104.673 640.761 93.7022C644.596 91.6201 648.548 89.475 652.645 87.3633L448.062 87.3633C477.168 99.4717 498.379 125.02 502.544 155.509Z" fill="#E9ECEF"/>
<path d="M502.544 155.509C511.033 150.058 522.424 140.613 524.182 128.384C525.706 117.794 529.667 120.763 535.634 125.237C540.853 129.149 547.606 134.212 555.605 132.362C563.23 130.598 565.767 123.858 568.117 117.616C571.05 109.822 573.692 102.804 585.579 107.215C603.572 113.891 620.552 104.673 640.761 93.7022C644.596 91.6201 648.548 89.475 652.645 87.3633L448.062 87.3633C477.168 99.4717 498.379 125.02 502.544 155.509Z" fill="#E9ECEF"/>
<path d="M598.163 155.509C589.674 150.058 578.283 140.613 576.524 128.384C575.001 117.794 571.04 120.763 565.072 125.237C559.854 129.149 553.101 134.212 545.102 132.362C537.476 130.599 534.939 123.858 532.59 117.616C529.656 109.822 527.015 102.805 515.128 107.215C497.134 113.891 480.154 104.673 459.945 93.7023C456.11 91.6202 452.159 89.475 448.062 87.3633L652.645 87.3633C623.539 99.4716 602.328 125.02 598.163 155.509Z" fill="#E9ECEF"/>
<path d="M598.163 155.509C589.674 150.058 578.283 140.613 576.524 128.384C575.001 117.794 571.04 120.763 565.072 125.237C559.854 129.149 553.101 134.212 545.102 132.362C537.476 130.599 534.939 123.858 532.59 117.616C529.656 109.822 527.015 102.805 515.128 107.215C497.134 113.891 480.154 104.673 459.945 93.7023C456.11 91.6202 452.159 89.475 448.062 87.3633L652.645 87.3633C623.539 99.4716 602.328 125.02 598.163 155.509Z" fill="#E9ECEF"/>
<path d="M502.544 18.0024C511.033 23.4532 522.424 32.8984 524.182 45.1271C525.706 55.7174 529.667 52.7479 535.634 48.2743C540.853 44.362 547.606 39.2994 555.605 41.1493C563.23 42.9128 565.767 49.653 568.117 55.8955C571.05 63.689 573.692 70.7068 585.579 66.2964C603.572 59.6202 620.552 68.8381 640.761 79.809C644.596 81.8911 648.548 84.0361 652.645 86.1478L448.062 86.1478C477.167 74.0395 498.379 48.4909 502.544 18.0024Z" fill="#E9ECEF"/>
<path d="M502.544 18.0024C511.033 23.4532 522.424 32.8984 524.182 45.1271C525.706 55.7174 529.667 52.7479 535.634 48.2743C540.853 44.362 547.606 39.2994 555.605 41.1493C563.23 42.9128 565.767 49.653 568.117 55.8955C571.05 63.689 573.692 70.7068 585.579 66.2964C603.572 59.6202 620.552 68.8381 640.761 79.809C644.596 81.8911 648.548 84.0361 652.645 86.1478L448.062 86.1478C477.167 74.0395 498.379 48.4909 502.544 18.0024Z" fill="#E9ECEF"/>
<path d="M448.808 86.1459C440.319 80.6952 428.928 71.2497 427.169 59.0208C425.646 48.4305 421.685 51.4 415.717 55.8737C410.499 59.786 403.746 64.8486 395.747 62.9987C388.121 61.2352 385.584 54.4951 383.235 48.2526C380.301 40.459 377.66 33.4412 365.773 37.8516C347.779 44.5278 330.799 35.3099 310.59 24.3389C306.755 22.2569 302.804 20.1117 298.707 18L503.291 18C474.185 30.1082 452.973 55.6572 448.808 86.1459Z" fill="#E9ECEF"/>
<path d="M448.808 86.1459C440.319 80.6952 428.928 71.2497 427.169 59.0208C425.646 48.4305 421.685 51.4 415.717 55.8737C410.499 59.786 403.746 64.8486 395.747 62.9987C388.121 61.2352 385.584 54.4951 383.235 48.2526C380.301 40.459 377.66 33.4412 365.773 37.8516C347.779 44.5278 330.799 35.3099 310.59 24.3389C306.755 22.2569 302.804 20.1117 298.707 18L503.291 18C474.185 30.1082 452.973 55.6572 448.808 86.1459Z" fill="#E9ECEF"/>
<path d="M651.898 363.598C660.387 358.147 671.779 348.702 673.538 336.473C675.061 325.883 679.022 328.852 684.989 333.326C690.208 337.238 696.961 342.301 704.96 340.451C712.585 338.687 715.122 331.947 717.472 325.705C720.405 317.911 723.047 310.893 734.934 315.304C752.927 321.98 769.907 312.762 790.116 301.791C793.952 299.709 797.903 297.564 802 295.452H597.417C626.522 307.561 647.733 333.109 651.898 363.598Z" fill="#E9ECEF"/>
<path d="M651.898 363.598C660.387 358.147 671.779 348.702 673.538 336.473C675.061 325.883 679.022 328.852 684.989 333.326C690.208 337.238 696.961 342.301 704.96 340.451C712.585 338.687 715.122 331.947 717.472 325.705C720.405 317.911 723.047 310.893 734.934 315.304C752.927 321.98 769.907 312.762 790.116 301.791C793.952 299.709 797.903 297.564 802 295.452H597.417C626.522 307.561 647.733 333.109 651.898 363.598Z" fill="#E9ECEF"/>
<path d="M502.544 156.728C511.033 162.179 522.424 171.624 524.182 183.853C525.706 194.443 529.667 191.474 535.634 187C540.853 183.088 547.606 178.025 555.605 179.875C563.23 181.639 565.767 188.379 568.117 194.621C571.05 202.415 573.692 209.433 585.579 205.022C603.572 198.346 620.552 207.564 640.761 218.535C644.596 220.617 648.548 222.762 652.645 224.874L448.062 224.874C477.168 212.765 498.379 187.217 502.544 156.728Z" fill="#E9ECEF"/>
<path d="M502.544 156.728C511.033 162.179 522.424 171.624 524.182 183.853C525.706 194.443 529.667 191.474 535.634 187C540.853 183.088 547.606 178.025 555.605 179.875C563.23 181.639 565.767 188.379 568.117 194.621C571.05 202.415 573.692 209.433 585.579 205.022C603.572 198.346 620.552 207.564 640.761 218.535C644.596 220.617 648.548 222.762 652.645 224.874L448.062 224.874C477.168 212.765 498.379 187.217 502.544 156.728Z" fill="#E9ECEF"/>
<path d="M598.163 294.235C589.674 288.784 578.283 279.339 576.524 267.11C575.001 256.52 571.04 259.489 565.072 263.963C559.854 267.875 553.101 272.938 545.102 271.088C537.476 269.324 534.939 262.584 532.59 256.342C529.656 248.548 527.015 241.53 515.128 245.941C497.134 252.617 480.154 243.399 459.945 232.428C456.11 230.346 452.159 228.201 448.062 226.089L652.645 226.089C623.539 238.197 602.328 263.746 598.163 294.235Z" fill="#E9ECEF"/>
<path d="M598.163 294.235C589.674 288.784 578.283 279.339 576.524 267.11C575.001 256.52 571.04 259.489 565.072 263.963C559.854 267.875 553.101 272.938 545.102 271.088C537.476 269.324 534.939 262.584 532.59 256.342C529.656 248.548 527.015 241.53 515.128 245.941C497.134 252.617 480.154 243.399 459.945 232.428C456.11 230.346 452.159 228.201 448.062 226.089L652.645 226.089C623.539 238.197 602.328 263.746 598.163 294.235Z" fill="#E9ECEF"/>
<path d="M651.898 226.091C660.387 231.542 671.779 240.987 673.538 253.216C675.061 263.806 679.022 260.837 684.989 256.363C690.208 252.451 696.961 247.388 704.96 249.238C712.585 251.002 715.122 257.742 717.472 263.984C720.405 271.778 723.047 278.796 734.934 274.385C752.927 267.709 769.907 276.927 790.116 287.898C793.952 289.98 797.903 292.125 802 294.237L597.417 294.237C626.522 282.128 647.734 256.579 651.898 226.091Z" fill="#E9ECEF"/>
<path d="M651.898 226.091C660.387 231.542 671.779 240.987 673.538 253.216C675.061 263.806 679.022 260.837 684.989 256.363C690.208 252.451 696.961 247.388 704.96 249.238C712.585 251.002 715.122 257.742 717.472 263.984C720.405 271.778 723.047 278.796 734.934 274.385C752.927 267.709 769.907 276.927 790.116 287.898C793.952 289.98 797.903 292.125 802 294.237L597.417 294.237C626.522 282.128 647.734 256.579 651.898 226.091Z" fill="#E9ECEF"/>
<path d="M448.808 226.091C440.319 231.542 428.928 240.987 427.169 253.216C425.646 263.807 421.685 260.837 415.717 256.363C410.499 252.451 403.746 247.389 395.747 249.238C388.121 251.002 385.584 257.742 383.235 263.985C380.301 271.778 377.66 278.796 365.773 274.386C347.779 267.709 330.799 276.927 310.59 287.898C306.755 289.98 302.804 292.126 298.707 294.237L503.291 294.237C474.185 282.129 452.973 256.58 448.808 226.091Z" fill="#E9ECEF"/>
<path d="M448.808 226.091C440.319 231.542 428.928 240.987 427.169 253.216C425.646 263.807 421.685 260.837 415.717 256.363C410.499 252.451 403.746 247.389 395.747 249.238C388.121 251.002 385.584 257.742 383.235 263.985C380.301 271.778 377.66 278.796 365.773 274.386C347.779 267.709 330.799 276.927 310.59 287.898C306.755 289.98 302.804 292.126 298.707 294.237L503.291 294.237C474.185 282.129 452.973 256.58 448.808 226.091Z" fill="#E9ECEF"/>
<path d="M502.544 294.235C511.033 288.784 522.424 279.339 524.182 267.11C525.706 256.52 529.667 259.489 535.634 263.963C540.853 267.875 547.606 272.938 555.605 271.088C563.23 269.324 565.767 262.584 568.117 256.342C571.05 248.548 573.692 241.53 585.579 245.941C603.572 252.617 620.552 243.399 640.761 232.428C644.596 230.346 648.548 228.201 652.645 226.089L448.062 226.089C477.167 238.197 498.379 263.746 502.544 294.235Z" fill="#E9ECEF"/>
<path d="M502.544 294.235C511.033 288.784 522.424 279.339 524.182 267.11C525.706 256.52 529.667 259.489 535.634 263.963C540.853 267.875 547.606 272.938 555.605 271.088C563.23 269.324 565.767 262.584 568.117 256.342C571.05 248.548 573.692 241.53 585.579 245.941C603.572 252.617 620.552 243.399 640.761 232.428C644.596 230.346 648.548 228.201 652.645 226.089L448.062 226.089C477.167 238.197 498.379 263.746 502.544 294.235Z" fill="#E9ECEF"/>
<path d="M598.163 156.729C589.674 162.179 578.283 171.625 576.524 183.853C575.001 194.444 571.04 191.474 565.072 187.001C559.854 183.088 553.101 178.026 545.102 179.876C537.476 181.639 534.939 188.379 532.59 194.622C529.656 202.415 527.015 209.433 515.128 205.023C497.134 198.346 480.154 207.564 459.945 218.535C456.11 220.617 452.159 222.762 448.062 224.874L652.645 224.874C623.539 212.766 602.328 187.217 598.163 156.729Z" fill="#E9ECEF"/>
<path d="M598.163 156.729C589.674 162.179 578.283 171.625 576.524 183.853C575.001 194.444 571.04 191.474 565.072 187.001C559.854 183.088 553.101 178.026 545.102 179.876C537.476 181.639 534.939 188.379 532.59 194.622C529.656 202.415 527.015 209.433 515.128 205.023C497.134 198.346 480.154 207.564 459.945 218.535C456.11 220.617 452.159 222.762 448.062 224.874L652.645 224.874C623.539 212.766 602.328 187.217 598.163 156.729Z" fill="#E9ECEF"/>
<path d="M448.808 363.598C440.32 358.147 428.928 348.702 427.169 336.473C425.646 325.883 421.685 328.852 415.718 333.326C410.499 337.238 403.746 342.301 395.747 340.451C388.122 338.687 385.585 331.947 383.235 325.705C380.301 317.911 377.66 310.893 365.773 315.304C347.78 321.98 330.8 312.762 310.591 301.791C306.755 299.709 302.804 297.564 298.707 295.452L503.29 295.452C474.185 307.561 452.973 333.109 448.808 363.598Z" fill="#E9ECEF"/>
<path d="M448.808 363.598C440.32 358.147 428.928 348.702 427.169 336.473C425.646 325.883 421.685 328.852 415.718 333.326C410.499 337.238 403.746 342.301 395.747 340.451C388.122 338.687 385.585 331.947 383.235 325.705C380.301 317.911 377.66 310.893 365.773 315.304C347.78 321.98 330.8 312.762 310.591 301.791C306.755 299.709 302.804 297.564 298.707 295.452L503.29 295.452C474.185 307.561 452.973 333.109 448.808 363.598Z" fill="#E9ECEF"/>
<path d="M353.192 86.1464C361.681 80.6957 373.072 71.2502 374.831 59.0212C376.354 48.4309 380.315 51.4004 386.283 55.8741C391.501 59.7864 398.254 64.849 406.253 62.9991C413.879 61.2356 416.416 54.4954 418.765 48.2529C421.699 40.4594 424.341 33.4415 436.227 37.852C454.221 44.5282 471.201 35.3102 491.41 24.3392C495.245 22.2572 499.197 20.1121 503.293 18.0004L298.71 18.0004C327.816 30.1088 349.027 55.6578 353.192 86.1464Z" fill="#E9ECEF"/>
<path d="M299.455 18.0017C290.966 23.4524 279.574 32.8978 277.815 45.1268C276.292 55.717 272.331 52.7476 266.364 48.2739C261.145 44.3616 254.392 39.299 246.393 41.1489C238.768 42.9124 236.231 49.6525 233.881 55.895C230.947 63.6886 228.306 70.7064 216.419 66.2959C198.426 59.6198 181.446 68.8377 161.237 79.8087C157.401 81.8907 153.45 84.0359 149.353 86.1476L353.936 86.1476C324.831 74.0392 303.619 48.4903 299.455 18.0017Z" fill="#E9ECEF"/>
<path d="M299.455 18.0017C290.966 23.4524 279.574 32.8978 277.815 45.1268C276.292 55.717 272.331 52.7476 266.364 48.2739C261.145 44.3616 254.392 39.299 246.393 41.1489C238.768 42.9124 236.231 49.6525 233.881 55.895C230.947 63.6886 228.306 70.7064 216.419 66.2959C198.426 59.6198 181.446 68.8377 161.237 79.8087C157.401 81.8907 153.45 84.0359 149.353 86.1476L353.936 86.1476C324.831 74.0392 303.619 48.4903 299.455 18.0017Z" fill="#E9ECEF"/>
<path d="M203.837 155.509C212.326 150.058 223.717 140.613 225.476 128.384C226.999 117.794 230.96 120.763 236.928 125.237C242.146 129.149 248.899 134.212 256.898 132.362C264.524 130.599 267.061 123.858 269.41 117.616C272.344 109.822 274.985 102.805 286.872 107.215C304.866 113.891 321.846 104.673 342.055 93.7024C345.89 91.6203 349.841 89.4751 353.938 87.3635L149.355 87.3635C178.46 99.4717 199.672 125.021 203.837 155.509Z" fill="#E9ECEF"/>
<path d="M203.837 155.509C212.326 150.058 223.717 140.613 225.476 128.384C226.999 117.794 230.96 120.763 236.928 125.237C242.146 129.149 248.899 134.212 256.898 132.362C264.524 130.599 267.061 123.858 269.41 117.616C272.344 109.822 274.985 102.805 286.872 107.215C304.866 113.891 321.846 104.673 342.055 93.7024C345.89 91.6203 349.841 89.4751 353.938 87.3635L149.355 87.3635C178.46 99.4717 199.672 125.021 203.837 155.509Z" fill="#E9ECEF"/>
<path d="M299.455 155.509C290.966 150.058 279.574 140.613 277.815 128.384C276.292 117.794 272.331 120.763 266.364 125.237C261.145 129.149 254.392 134.212 246.393 132.362C238.768 130.599 236.231 123.858 233.881 117.616C230.947 109.822 228.306 102.804 216.419 107.215C198.426 113.891 181.446 104.673 161.237 93.7022C157.401 91.6202 153.45 89.475 149.353 87.3633L353.936 87.3633C324.831 99.4717 303.619 125.021 299.455 155.509Z" fill="#E9ECEF"/>
<path d="M299.455 155.509C290.966 150.058 279.574 140.613 277.815 128.384C276.292 117.794 272.331 120.763 266.364 125.237C261.145 129.149 254.392 134.212 246.393 132.362C238.768 130.599 236.231 123.858 233.881 117.616C230.947 109.822 228.306 102.804 216.419 107.215C198.426 113.891 181.446 104.673 161.237 93.7022C157.401 91.6202 153.45 89.475 149.353 87.3633L353.936 87.3633C324.831 99.4717 303.619 125.021 299.455 155.509Z" fill="#E9ECEF"/>
<path d="M203.837 18.0022C212.326 23.4529 223.717 32.8982 225.476 45.127C226.999 55.7173 230.96 52.7478 236.928 48.2742C242.146 44.3619 248.899 39.2993 256.898 41.1492C264.524 42.9127 267.061 49.6528 269.41 55.8953C272.344 63.6888 274.985 70.7067 286.872 66.2962C304.866 59.62 321.846 68.838 342.055 79.809C345.89 81.891 349.841 84.0362 353.938 86.1479L149.355 86.1479C178.46 74.0396 199.672 48.4908 203.837 18.0022Z" fill="#E9ECEF"/>
<path d="M203.837 18.0022C212.326 23.4529 223.717 32.8982 225.476 45.127C226.999 55.7173 230.96 52.7478 236.928 48.2742C242.146 44.3619 248.899 39.2993 256.898 41.1492C264.524 42.9127 267.061 49.6528 269.41 55.8953C272.344 63.6888 274.985 70.7067 286.872 66.2962C304.866 59.62 321.846 68.838 342.055 79.809C345.89 81.891 349.841 84.0362 353.938 86.1479L149.355 86.1479C178.46 74.0396 199.672 48.4908 203.837 18.0022Z" fill="#E9ECEF"/>
<path d="M150.101 86.1459C141.613 80.6952 130.221 71.2498 128.462 59.0209C126.939 48.4306 122.978 51.4002 117.011 55.8738C111.792 59.7861 105.039 64.8487 97.0401 62.9988C89.4146 61.2353 86.8775 54.4951 84.5279 48.2526C81.5944 40.4591 78.9529 33.4413 67.066 37.8517C49.0726 44.5279 32.0926 35.3099 11.8836 24.339C8.04835 22.2569 4.09682 20.1118 0 18.0001L204.583 18.0001C175.478 30.1084 154.266 55.6574 150.101 86.1459Z" fill="#E9ECEF"/>
<path d="M150.101 86.1459C141.613 80.6952 130.221 71.2498 128.462 59.0209C126.939 48.4306 122.978 51.4002 117.011 55.8738C111.792 59.7861 105.039 64.8487 97.0401 62.9988C89.4146 61.2353 86.8775 54.4951 84.5279 48.2526C81.5944 40.4591 78.9529 33.4413 67.066 37.8517C49.0726 44.5279 32.0926 35.3099 11.8836 24.339C8.04835 22.2569 4.09682 20.1118 0 18.0001L204.583 18.0001C175.478 30.1084 154.266 55.6574 150.101 86.1459Z" fill="#E9ECEF"/>
<path d="M353.192 363.598C361.681 358.147 373.072 348.702 374.831 336.473C376.354 325.883 380.315 328.852 386.283 333.326C391.501 337.238 398.254 342.301 406.253 340.451C413.879 338.687 416.416 331.947 418.766 325.705C421.699 317.911 424.341 310.893 436.227 315.304C454.221 321.98 471.201 312.762 491.41 301.791C495.245 299.709 499.197 297.564 503.293 295.452L298.71 295.452C327.815 307.561 349.027 333.11 353.192 363.598Z" fill="#E9ECEF"/>
<path d="M353.192 363.598C361.681 358.147 373.072 348.702 374.831 336.473C376.354 325.883 380.315 328.852 386.283 333.326C391.501 337.238 398.254 342.301 406.253 340.451C413.879 338.687 416.416 331.947 418.766 325.705C421.699 317.911 424.341 310.893 436.227 315.304C454.221 321.98 471.201 312.762 491.41 301.791C495.245 299.709 499.197 297.564 503.293 295.452L298.71 295.452C327.815 307.561 349.027 333.11 353.192 363.598Z" fill="#E9ECEF"/>
<path d="M203.837 156.729C212.326 162.179 223.717 171.625 225.476 183.854C226.999 194.444 230.96 191.474 236.928 187.001C242.146 183.088 248.899 178.026 256.898 179.876C264.524 181.639 267.061 188.379 269.41 194.622C272.344 202.415 274.985 209.433 286.872 205.023C304.866 198.346 321.846 207.564 342.055 218.535C345.89 220.617 349.841 222.763 353.938 224.874L149.355 224.874C178.46 212.766 199.672 187.217 203.837 156.729Z" fill="#E9ECEF"/>
<path d="M203.837 156.729C212.326 162.179 223.717 171.625 225.476 183.854C226.999 194.444 230.96 191.474 236.928 187.001C242.146 183.088 248.899 178.026 256.898 179.876C264.524 181.639 267.061 188.379 269.41 194.622C272.344 202.415 274.985 209.433 286.872 205.023C304.866 198.346 321.846 207.564 342.055 218.535C345.89 220.617 349.841 222.763 353.938 224.874L149.355 224.874C178.46 212.766 199.672 187.217 203.837 156.729Z" fill="#E9ECEF"/>
<path d="M299.455 294.235C290.966 288.784 279.574 279.339 277.815 267.11C276.292 256.52 272.331 259.489 266.364 263.963C261.145 267.875 254.392 272.938 246.393 271.088C238.768 269.324 236.231 262.584 233.881 256.342C230.947 248.548 228.306 241.53 216.419 245.941C198.426 252.617 181.446 243.399 161.237 232.428C157.401 230.346 153.45 228.201 149.353 226.089L353.936 226.089C324.831 238.198 303.619 263.747 299.455 294.235Z" fill="#E9ECEF"/>
<path d="M299.455 294.235C290.966 288.784 279.574 279.339 277.815 267.11C276.292 256.52 272.331 259.489 266.364 263.963C261.145 267.875 254.392 272.938 246.393 271.088C238.768 269.324 236.231 262.584 233.881 256.342C230.947 248.548 228.306 241.53 216.419 245.941C198.426 252.617 181.446 243.399 161.237 232.428C157.401 230.346 153.45 228.201 149.353 226.089L353.936 226.089C324.831 238.198 303.619 263.747 299.455 294.235Z" fill="#E9ECEF"/>
<path d="M353.192 226.091C361.681 231.542 373.072 240.987 374.831 253.216C376.354 263.806 380.315 260.837 386.283 256.363C391.501 252.451 398.254 247.388 406.253 249.238C413.879 251.002 416.416 257.742 418.766 263.984C421.699 271.778 424.341 278.796 436.227 274.385C454.221 267.709 471.201 276.927 491.41 287.898C495.245 289.98 499.197 292.125 503.293 294.237L298.71 294.237C327.816 282.129 349.027 256.58 353.192 226.091Z" fill="#E9ECEF"/>
<path d="M353.192 226.091C361.681 231.542 373.072 240.987 374.831 253.216C376.354 263.806 380.315 260.837 386.283 256.363C391.501 252.451 398.254 247.388 406.253 249.238C413.879 251.002 416.416 257.742 418.766 263.984C421.699 271.778 424.341 278.796 436.227 274.385C454.221 267.709 471.201 276.927 491.41 287.898C495.245 289.98 499.197 292.125 503.293 294.237L298.71 294.237C327.816 282.129 349.027 256.58 353.192 226.091Z" fill="#E9ECEF"/>
<path d="M150.101 226.091C141.613 231.542 130.221 240.987 128.462 253.216C126.939 263.806 122.978 260.837 117.011 256.363C111.792 252.451 105.039 247.388 97.0401 249.238C89.4146 251.002 86.8776 257.742 84.5279 263.984C81.5944 271.778 78.9529 278.796 67.066 274.385C49.0726 267.709 32.0926 276.927 11.8836 287.898C8.04838 289.98 4.09685 292.125 2.59995e-05 294.237H204.583C175.478 282.128 154.266 256.579 150.101 226.091Z" fill="#E9ECEF"/>
<path d="M150.101 226.091C141.613 231.542 130.221 240.987 128.462 253.216C126.939 263.806 122.978 260.837 117.011 256.363C111.792 252.451 105.039 247.388 97.0401 249.238C89.4146 251.002 86.8776 257.742 84.5279 263.984C81.5944 271.778 78.9529 278.796 67.066 274.385C49.0726 267.709 32.0926 276.927 11.8836 287.898C8.04838 289.98 4.09685 292.125 2.59995e-05 294.237H204.583C175.478 282.128 154.266 256.579 150.101 226.091Z" fill="#E9ECEF"/>
<path d="M203.837 294.235C212.326 288.784 223.717 279.339 225.476 267.11C226.999 256.52 230.96 259.489 236.928 263.963C242.146 267.875 248.899 272.938 256.898 271.088C264.524 269.324 267.061 262.584 269.41 256.342C272.344 248.548 274.985 241.53 286.872 245.941C304.866 252.617 321.846 243.399 342.055 232.428C345.89 230.346 349.841 228.201 353.938 226.089L149.355 226.089C178.46 238.197 199.672 263.746 203.837 294.235Z" fill="#E9ECEF"/>
<path d="M203.837 294.235C212.326 288.784 223.717 279.339 225.476 267.11C226.999 256.52 230.96 259.489 236.928 263.963C242.146 267.875 248.899 272.938 256.898 271.088C264.524 269.324 267.061 262.584 269.41 256.342C272.344 248.548 274.985 241.53 286.872 245.941C304.866 252.617 321.846 243.399 342.055 232.428C345.89 230.346 349.841 228.201 353.938 226.089L149.355 226.089C178.46 238.197 199.672 263.746 203.837 294.235Z" fill="#E9ECEF"/>
<path d="M299.455 156.728C290.966 162.179 279.574 171.624 277.815 183.853C276.292 194.443 272.331 191.474 266.364 187C261.145 183.088 254.392 178.025 246.393 179.875C238.768 181.639 236.231 188.379 233.881 194.621C230.947 202.415 228.306 209.433 216.419 205.022C198.426 198.346 181.446 207.564 161.237 218.535C157.401 220.617 153.45 222.762 149.353 224.874L353.936 224.874C324.831 212.766 303.619 187.217 299.455 156.728Z" fill="#E9ECEF"/>
<path d="M299.455 156.728C290.966 162.179 279.574 171.624 277.815 183.853C276.292 194.443 272.331 191.474 266.364 187C261.145 183.088 254.392 178.025 246.393 179.875C238.768 181.639 236.231 188.379 233.881 194.621C230.947 202.415 228.306 209.433 216.419 205.022C198.426 198.346 181.446 207.564 161.237 218.535C157.401 220.617 153.45 222.762 149.353 224.874L353.936 224.874C324.831 212.766 303.619 187.217 299.455 156.728Z" fill="#E9ECEF"/>
<path d="M150.101 363.598C141.613 358.147 130.221 348.702 128.462 336.473C126.939 325.883 122.978 328.852 117.011 333.326C111.792 337.238 105.039 342.301 97.0401 340.451C89.4146 338.687 86.8776 331.947 84.5279 325.705C81.5944 317.911 78.9529 310.893 67.066 315.304C49.0726 321.98 32.0926 312.762 11.8836 301.791C8.04838 299.709 4.09685 297.564 2.61139e-05 295.452H204.583C175.478 307.561 154.266 333.109 150.101 363.598Z" fill="#E9ECEF"/>
<path d="M150.101 363.598C141.613 358.147 130.221 348.702 128.462 336.473C126.939 325.883 122.978 328.852 117.011 333.326C111.792 337.238 105.039 342.301 97.0401 340.451C89.4146 338.687 86.8776 331.947 84.5279 325.705C81.5944 317.911 78.9529 310.893 67.066 315.304C49.0726 321.98 32.0926 312.762 11.8836 301.791C8.04838 299.709 4.09685 297.564 2.61139e-05 295.452H204.583C175.478 307.561 154.266 333.109 150.101 363.598Z" fill="#E9ECEF"/>
</g>
<defs>
<filter id="filter0_d_455_71" x="-18" y="0" width="838" height="866" filterUnits="userSpaceOnUse" color-interpolation-filters="sRGB">
<feFlood flood-opacity="0" result="BackgroundImageFix"/>
<feColorMatrix in="SourceAlpha" type="matrix" values="0 0 0 0 0 0 0 0 0 0 0 0 0 0 0 0 0 0 127 0" result="hardAlpha"/>
<feOffset/>
<feGaussianBlur stdDeviation="9"/>
<feComposite in2="hardAlpha" operator="out"/>
<feColorMatrix type="matrix" values="0 0 0 0 0 0 0 0 0 0 0 0 0 0 0 0 0 0 0.25 0"/>
<feBlend mode="normal" in2="BackgroundImageFix" result="effect1_dropShadow_455_71"/>
<feBlend mode="normal" in="SourceGraphic" in2="effect1_dropShadow_455_71" result="shape"/>
</filter>
</defs>
</svg>
