<?xml version="1.0" encoding="UTF-8"?>
<svg id="Layer_2" data-name="Layer 2" xmlns="http://www.w3.org/2000/svg" xmlns:xlink="http://www.w3.org/1999/xlink" viewBox="0 0 567.49 222.16">
  <defs>
    <style>
      .cls-1 {
        fill: #fff;
      }

      .cls-2 {
        fill: url(#New_Gradient_Swatch_copy_2-4);
      }

      .cls-3 {
        fill: url(#New_Gradient_Swatch_copy_2);
      }

      .cls-4 {
        fill: url(#New_Gradient_Swatch_copy_2-2);
      }

      .cls-5 {
        fill: url(#New_Gradient_Swatch_copy_2-3);
      }

      .cls-6 {
        fill: url(#New_Gradient_Swatch_copy);
      }
    </style>
    <linearGradient id="New_Gradient_Swatch_copy_2" data-name="New Gradient Swatch copy 2" x1="220.7" y1="99.04" x2="567.49" y2="99.04" gradientUnits="userSpaceOnUse">
      <stop offset="0" stop-color="#808285"/>
      <stop offset="1" stop-color="#414042"/>
    </linearGradient>
    <linearGradient id="New_Gradient_Swatch_copy" data-name="New Gradient Swatch copy" x1="0" y1="112.53" x2="344.25" y2="112.53" gradientUnits="userSpaceOnUse">
      <stop offset="0" stop-color="#120fff"/>
      <stop offset="1" stop-color="#02d7ff"/>
    </linearGradient>
    <linearGradient id="New_Gradient_Swatch_copy_2-2" data-name="New Gradient Swatch copy 2" x1="460.29" y1="47.94" x2="485.34" y2="47.94" xlink:href="#New_Gradient_Swatch_copy_2"/>
    <linearGradient id="New_Gradient_Swatch_copy_2-3" data-name="New Gradient Swatch copy 2" x1="391.74" y1="164.22" x2="416.89" y2="164.22" xlink:href="#New_Gradient_Swatch_copy_2"/>
    <linearGradient id="New_Gradient_Swatch_copy_2-4" data-name="New Gradient Swatch copy 2" x1="305.68" y1="121.93" x2="523.99" y2="121.93" xlink:href="#New_Gradient_Swatch_copy_2"/>
  </defs>
  <g id="Layer_1-2" data-name="Layer 1">
    <path class="cls-3" d="M468.44,0h-148.7c-54.61,0-99.04,44.43-99.04,99.04s44.43,99.04,99.04,99.04h148.7c54.61,0,99.04-44.43,99.04-99.04S523.06,0,468.44,0Zm-148.7,192.08c-51.3,0-93.04-41.74-93.04-93.04S268.44,6,319.74,6h148.7c20.48,0,39.43,6.65,54.81,17.91,8.83,8.4,16.29,18.53,21.8,30.22,22.65,48.09,4.12,104.95-41.24,130.89,.69-.26,1.37-.54,2.06-.81-11.46,5.06-24.12,7.87-37.43,7.87h-148.7Z"/>
    <path class="cls-6" d="M340.19,19.58l-7.53-7.86-33.54,30.3C281.62,18.3,253.48,2.91,221.74,2.91c-24.02,0-45.98,8.81-62.83,23.38C142.07,11.72,120.11,2.91,96.09,2.91,43.02,2.91,0,45.93,0,99c0,31.76,15.41,59.92,39.17,77.41l-22.15,24.88-7.41,8.2-.92,1.13h0s-.05,.07-.05,.07l1.03,1s.43,.42,1.12,.96l5.56,5.33,.14,.12c3.79,2.86,7.82,4.06,11.75,4.06,6.5,0,12.73-3.31,17.19-7.91l22.49-23.36c8.91,2.73,18.37,4.2,28.17,4.2,24.02,0,45.98-8.81,62.83-23.38,16.85,14.57,38.81,23.38,62.83,23.38,53.07,0,96.09-43.02,96.09-96.09,0-9.79-1.47-19.23-4.19-28.13l22.71-22.35c7.38-7.14,11.43-18.86,3.84-28.93ZM43.27,212.16c-6.21,6.41-16.31,10-24.9,3.58l-5.55-5.32h-.01s6.44-7.14,6.44-7.14l22.37-25.13c7.08,4.88,14.85,8.84,23.13,11.69l-21.48,22.31ZM312.6,67.68c-2.86-8.31-6.83-16.09-11.73-23.19l31.64-28.59,5.33,5.56c6.41,8.59,2.83,18.69-3.59,24.91l-21.65,21.31Z"/>
    <path class="cls-1" d="M58.12,88.46c8.6-22.49,32.98-34.29,55.69-27.62-1.06-.51-2.14-.99-3.26-1.42-21.74-8.31-46.11,2.58-54.42,24.32-3.74,9.78-3.58,20.09-.31,29.23-1.45-7.96-.8-16.4,2.3-24.51Z"/>
    <path class="cls-1" d="M183.22,88.16c8.37-22.57,32.64-34.62,55.41-28.17-1.06-.5-2.15-.97-3.27-1.38-21.82-8.09-46.08,3.04-54.17,24.86-3.64,9.82-3.38,20.12-.02,29.23-1.52-7.95-.97-16.4,2.05-24.53Z"/>
    <g>
      <path class="cls-4" d="M463.88,56.83c1.1,1.13,2.43,2.02,3.98,2.67,1.55,.65,3.2,.97,4.95,.97s3.4-.32,4.95-.97c1.55-.65,2.88-1.54,3.98-2.67,1.1-1.13,1.97-2.46,2.62-3.98,.65-1.52,.97-3.12,.97-4.81s-.32-3.4-.97-4.95c-.65-1.55-1.52-2.9-2.62-4.03-1.1-1.13-2.43-2.02-3.98-2.67-1.55-.65-3.2-.97-4.95-.97s-3.4,.32-4.95,.97c-1.55,.65-2.88,1.54-3.98,2.67-1.1,1.13-1.97,2.48-2.62,4.03-.65,1.55-.97,3.2-.97,4.95s.32,3.29,.97,4.81c.65,1.52,1.52,2.85,2.62,3.98Z"/>
      <path class="cls-5" d="M413.2,155.29c-1.17-1.13-2.51-2.02-4.03-2.67-1.52-.65-3.16-.97-4.9-.97s-3.38,.32-4.9,.97c-1.52,.65-2.85,1.54-3.98,2.67-1.13,1.13-2.02,2.46-2.67,3.98-.65,1.52-.97,3.19-.97,5,0,1.68,.32,3.28,.97,4.81,.65,1.52,1.54,2.85,2.67,3.98s2.46,2.04,3.98,2.72c1.52,.68,3.16,1.02,4.9,1.02s3.38-.34,4.9-1.02c1.52-.68,2.86-1.59,4.03-2.72,1.17-1.13,2.07-2.46,2.72-3.98,.65-1.52,.97-3.12,.97-4.81,0-1.81-.33-3.48-.97-5-.65-1.52-1.55-2.85-2.72-3.98Z"/>
      <path class="cls-2" d="M523.94,96.2c-.03-4.34-.05-8.67-.05-13.01v-13.89h-83.6v8.74c-.07,2.91,.21,5.31,.83,7.18,.61,1.88,1.49,3.4,2.62,4.56,1.13,1.17,2.46,1.99,3.98,2.48,1.52,.49,3.16,.76,4.9,.83h47.09v22.24h-83.89v-46.03h-11.85c-4.14,.39-7.23,2.01-9.27,4.85-2.04,2.85-3.06,6.34-3.06,10.49v30.68h-28.87l1-46.03h-12.24c-8.87,2.27-13.27,9.29-13.21,21.07l-.72,9.88c.03,.91,.04,1.83,.04,2.74,0,28.43-12.35,53.97-31.97,71.56h29.12c12.72-11.96,19.66-23.6,24.4-34.96h147.32c5.24-.78,9.34-2.57,12.28-5.39,2.95-2.82,4.68-6.55,5.2-11.21v-13.79c0-4.34-.02-8.67-.05-13.01Z"/>
    </g>
    <path class="cls-1" d="M338.99,20.49l-6.41-6.67-68.22,61.64,1.87,8.33c.54,2.41,2.04,10,2.45,16.11,.7,10.46-4.01,22.47-12.3,31.33-6.33,6.77-17.52,14.84-34.87,14.84-25.99,0-47.14-21.15-47.14-47.14,0-13.49,4.65-25.21,13.45-33.9,8.69-8.58,20.9-13.41,33.5-13.24,9.22,.12,15.51,2.41,17.78,3.39l20.85-20.9c-15.13-9.91-26.94-10.35-37.25-10.48-20.3-.26-41.07,6.61-55.25,20.6-3.38,3.34-6.39,6.98-9.03,10.87-13.76-19.84-36.68-32.86-62.59-32.86-21.11,0-40.48,7.84-54.53,22.08-13.99,14.18-20.87,34.95-20.6,55.25,.13,10.31,.57,22.12,10.48,37.25l20.9-20.85c-.98-2.28-3.27-8.56-3.39-17.78-.16-12.59,4.66-24.8,13.24-33.5,8.69-8.8,20.41-13.45,33.9-13.45,25.99,0,47.14,21.15,47.14,47.14,0,17.35-8.07,28.54-14.84,34.87-8.86,8.29-20.88,13-31.33,12.3-6.1-.41-13.7-1.9-16.11-2.45l-8.33-1.87-54.23,60.91-7.41,8.2,.06,.06-.06,.06s.38,.36,1.06,.9l5.61,5.39c8.79,6.62,19.72,3.78,26.95-3.69l38.53-40.03c3.59,.59,7.87,1.18,11.97,1.46,18.49,1.24,38.33-6.26,53.08-20.06,4.11-3.84,7.72-8.08,10.82-12.62,13.74,19.97,36.74,33.09,62.75,33.09,21.66,0,41.56-8.53,56.05-24.03,13.8-14.75,21.3-34.59,20.06-53.08-.28-4.11-.87-8.39-1.46-11.97l39.15-38.53c7.47-7.23,10.31-18.16,3.69-26.95Z"/>
  </g>
</svg>